<svg width="118" height="55" viewBox="0 0 118 55" fill="none" xmlns="http://www.w3.org/2000/svg">
<g clip-path="url(#clip0)">
<path d="M77.5944 35.9121C76.8975 37.5221 76.0726 39.0041 75.1169 40.3667C73.8141 42.2241 72.7474 43.5098 71.9253 44.2238C70.651 45.3957 69.2856 45.9959 67.8235 46.0301C66.7739 46.0301 65.5081 45.7314 64.0347 45.1255C62.5564 44.5225 61.1978 44.2238 59.9556 44.2238C58.6528 44.2238 57.2556 44.5225 55.7611 45.1255C54.2643 45.7314 53.0586 46.0471 52.1366 46.0784C50.7346 46.1382 49.3371 45.5209 47.9421 44.2238C47.0518 43.4473 45.9382 42.116 44.6041 40.2301C43.1727 38.2162 41.996 35.8809 41.0741 33.2184C40.0867 30.3426 39.5918 27.5578 39.5918 24.8618C39.5918 21.7735 40.2591 19.1099 41.5958 16.8778C42.6462 15.0849 44.0437 13.6706 45.7928 12.6324C47.5419 11.5942 49.4318 11.0651 51.4671 11.0312C52.5807 11.0312 54.041 11.3757 55.8558 12.0527C57.6655 12.732 58.8275 13.0764 59.337 13.0764C59.7178 13.0764 61.0087 12.6736 63.197 11.8706C65.2663 11.126 67.0129 10.8176 68.4436 10.9391C72.3207 11.252 75.2335 12.7803 77.1706 15.5338C73.7031 17.6348 71.9879 20.5774 72.022 24.3523C72.0533 27.2927 73.12 29.7396 75.2164 31.6824C76.1665 32.5841 77.2275 33.281 78.408 33.7759C78.152 34.5183 77.8817 35.2295 77.5944 35.9121ZM68.7025 0.921844C68.7025 3.22649 67.8605 5.37834 66.1823 7.37006C64.157 9.73783 61.7073 11.106 59.0508 10.8901C59.0169 10.6137 58.9973 10.3227 58.9973 10.0169C58.9973 7.80442 59.9605 5.43665 61.6709 3.50068C62.5248 2.52046 63.6108 1.70542 64.9278 1.05525C66.242 0.414782 67.485 0.0605839 68.6541 -6.10352e-05C68.6883 0.308028 68.7025 0.616145 68.7025 0.921816V0.921844Z" fill="black"/>
</g>
<defs>
<clipPath id="clip0">
<rect width="118" height="54.3421" fill="white"/>
</clipPath>
</defs>
</svg>
