<svg width="118" height="55" viewBox="0 0 118 55" fill="none" xmlns="http://www.w3.org/2000/svg">
<path d="M109.829 7.48535H7.76318V46.8565H110.237V7.48535H109.829Z" fill="white"/>
<path d="M45.4342 31.1486H106.565V43.1843H45.4342V31.1486Z" fill="#003D68"/>
<path d="M11.7753 11.5651H43.3946V43.1843H11.7753V11.5651Z" fill="#003D68"/>
<path d="M28.2309 13.8768H28.2989C30.5428 13.8768 32.6508 14.4888 34.4867 15.5768H29.9308C29.5908 15.1688 29.2508 14.8288 28.9109 14.4208L28.2309 13.8768ZM27.8229 39.9882C30.0668 39.9882 32.2428 39.3083 34.0787 38.2203H29.5228C29.1828 38.6283 28.8429 38.9683 28.5029 39.3083L27.8229 39.9882ZM29.9988 37.6763C29.9988 37.7443 29.9308 37.7443 29.8628 37.8123H34.7587C35.5067 37.2683 36.1867 36.7243 36.8667 36.0443H31.1548C30.8828 36.4523 30.6788 36.7923 30.4068 37.2003L29.9988 37.6763ZM31.5628 35.3643C31.4948 35.4323 31.4948 35.5683 31.4268 35.6363H37.2747C37.7507 35.0924 38.1586 34.4804 38.5666 33.8684H32.2428C32.1068 34.2084 31.9028 34.6164 31.6988 34.9564L31.5628 35.3643ZM32.6508 32.9844C32.5828 33.1204 32.5148 33.2564 32.5148 33.3924H38.9066C39.2466 32.8484 39.5186 32.2364 39.7226 31.6244H33.1268C33.0588 31.9644 32.9228 32.3044 32.7868 32.6444L32.6508 32.9844ZM33.3988 30.6045C33.3308 30.8084 33.3308 30.9444 33.2628 31.1484H39.9266C40.1306 30.6045 40.2666 29.9925 40.4026 29.3805H33.6027C33.5347 29.6525 33.5347 29.9925 33.4667 30.2645L33.3988 30.6045ZM33.7387 28.2245C33.7387 28.4285 33.6707 28.7005 33.6707 28.9045H40.4706C40.5386 28.3605 40.6066 27.7485 40.6746 27.1365H33.8747C33.8747 27.4085 33.8747 27.6805 33.8067 27.9525L33.7387 28.2245ZM33.8067 25.9126V26.7285H40.6746C40.6746 26.1166 40.6746 25.5726 40.5386 24.9606H33.7387C33.7387 25.1646 33.7387 25.3686 33.8067 25.6406V25.9126ZM33.6027 23.5326C33.6707 23.8726 33.6707 24.1446 33.7387 24.4846H40.5386C40.4706 23.8726 40.3346 23.3286 40.1306 22.7166H33.4667C33.5347 22.8526 33.5347 23.0566 33.6027 23.1926V23.5326ZM32.9908 21.2207C33.1268 21.5607 33.1948 21.9007 33.2628 22.2406H39.8586C39.6546 21.6287 39.3826 21.0847 39.1106 20.4727H32.7188C32.7868 20.6087 32.7868 20.7447 32.8548 20.8127L32.9908 21.2207ZM32.1068 18.9087C32.3108 19.2487 32.4468 19.6567 32.5828 19.9967H38.9066C38.5666 19.3847 38.1586 18.7727 37.6827 18.2287H31.7668C31.8348 18.2967 31.8348 18.3647 31.9028 18.4327L32.1068 18.9087ZM30.8148 16.6648C31.0868 17.0048 31.2908 17.4128 31.4948 17.8207H37.2747C36.6627 17.1408 35.9827 16.5968 35.3027 16.0528H30.4068L30.4748 16.1208" fill="white"/>
<path d="M27.2109 14.4889L21.567 14.8969C23.063 14.2169 25.1029 14.2169 26.8709 14.2169" fill="white"/>
<path d="M27.0748 39.3764L21.4989 39.0364C22.9949 39.6484 24.6948 39.9883 26.3948 39.9883" fill="white"/>
<path d="M28.9788 37.2004L17.759 36.5204C18.235 36.9964 18.711 37.4044 19.255 37.7444L28.6388 37.6764" fill="white"/>
<path d="M30.4067 34.8884L15.855 34.1404C16.127 34.6164 16.467 35.0924 16.807 35.5004L30.2027 35.2964" fill="white"/>
<path d="M31.4266 32.6443L14.767 31.8964L15.379 33.3243L31.2906 32.9843" fill="white"/>
<path d="M32.0386 30.2645L14.087 29.5845C14.155 30.0605 14.291 30.6045 14.427 31.0805L31.9706 30.6045" fill="white"/>
<path d="M32.3786 27.9524L13.951 27.3405C13.951 27.8844 13.951 28.3604 14.019 28.8364L32.3786 28.2244" fill="white"/>
<path d="M32.4466 25.5724L14.087 25.0964C14.019 25.5724 13.951 26.1164 13.951 26.5924L32.4466 25.8444" fill="white"/>
<path d="M32.1746 23.2605L14.699 22.9205C14.563 23.3965 14.427 23.9405 14.291 24.4165L32.2426 23.6005" fill="white"/>
<path d="M31.4947 20.8808L15.5831 20.6768C15.3111 21.1528 15.1071 21.6288 14.9031 22.1048L31.6307 21.2208" fill="white"/>
<path d="M30.5427 18.5006L17.215 18.3646C16.8071 18.7726 16.4671 19.2486 16.1951 19.7246L30.7467 18.8406" fill="white"/>
<path d="M29.0466 16.1887H19.6628C19.1188 16.5967 18.6429 17.0047 18.1669 17.4127L29.4546 16.6647" fill="white"/>
<path d="M52.166 34.6163V40.1241H51.078V34.6163H49.514V34.0723H53.7299V34.6163H52.166Z" fill="white"/>
<path d="M54.4102 40.1241V34.0723H58.1501V34.6163H55.4981V36.7242H57.8781V37.2682H55.4981V39.5801H58.1501V40.1241H54.4102Z" fill="white"/>
<path d="M61.6179 40.2603C59.7139 40.2603 58.626 38.8323 58.626 37.1324C58.626 35.4324 59.7139 34.0045 61.6179 34.0045C62.2979 34.0045 62.8419 34.1405 63.1819 34.3444L62.9099 34.8204C62.6379 34.6844 62.2979 34.5484 61.8219 34.5484C60.2579 34.5484 59.714 35.8404 59.714 37.1324C59.714 38.4244 60.3259 39.6483 61.7539 39.6483C62.2299 39.6483 62.5699 39.5803 62.8419 39.4443L63.1139 39.9883C62.8419 40.1243 62.2299 40.2603 61.6179 40.2603Z" fill="white"/>
<path d="M67.9418 40.1241V37.2682H64.9499V40.1241H63.8619V34.0723H64.9499V36.7242H67.9418V34.0723H69.0298V40.1241H67.9418Z" fill="white"/>
<path d="M74.8096 40.1243L71.4097 35.7044C71.1377 35.2964 70.8657 34.9564 70.8657 34.9564C70.8657 34.9564 70.9337 35.2964 70.9337 35.7044V40.1243H70.0497V34.0045H71.2057L74.4696 38.2884C74.7416 38.6283 74.9456 38.9683 74.9456 38.9683C74.9456 38.9683 74.8776 38.6963 74.8776 38.2884V34.0725H75.7616V40.1923H74.8096V40.1243Z" fill="white"/>
<path d="M79.3657 40.2603C77.2578 40.2603 76.4418 38.9003 76.4418 37.1324C76.4418 35.4324 77.2578 34.0045 79.3657 34.0045C81.4737 34.0045 82.2896 35.4324 82.2896 37.1324C82.2896 38.8323 81.4737 40.2603 79.3657 40.2603ZM79.3657 34.5484C77.8697 34.5484 77.5297 35.9084 77.5297 37.1324C77.5297 38.3564 77.8017 39.7163 79.3657 39.7163C80.8617 39.7163 81.2017 38.4244 81.2017 37.1324C81.2017 35.8404 80.8617 34.5484 79.3657 34.5484Z" fill="white"/>
<path d="M83.0376 40.1241V34.0723H84.0576V39.5801H86.5055V40.1241H83.0376Z" fill="white"/>
<path d="M89.2936 40.2603C87.1856 40.2603 86.3696 38.9003 86.3696 37.1324C86.3696 35.4324 87.1856 34.0045 89.2936 34.0045C91.4015 34.0045 92.2175 35.4324 92.2175 37.1324C92.1495 38.8323 91.3335 40.2603 89.2936 40.2603ZM89.2936 34.5484C87.7976 34.5484 87.4576 35.9084 87.4576 37.1324C87.4576 38.3564 87.7296 39.7163 89.2936 39.7163C90.7895 39.7163 91.1295 38.4244 91.1295 37.1324C91.0615 35.8404 90.7215 34.5484 89.2936 34.5484Z" fill="white"/>
<path d="M96.2292 40.2603C94.3932 40.2603 92.8292 39.2403 92.8292 37.0644C92.8292 35.0244 94.3932 34.0045 96.2292 34.0045C97.1131 34.0045 97.7251 34.1405 98.1331 34.3444L97.7931 34.8204C97.5211 34.6844 97.0451 34.5484 96.3652 34.5484C94.8692 34.5484 93.9852 35.3644 93.9852 37.1324C93.9852 38.7643 95.0052 39.6483 96.2292 39.6483C96.7731 39.6483 97.0451 39.5803 97.2491 39.5123V37.2004H95.8892V36.7244H98.2691V39.9203C97.7251 40.1243 97.1811 40.2603 96.2292 40.2603Z" fill="white"/>
<path d="M101.737 37.4722V40.1241H100.649V37.4722L98.473 34.0723H99.629L101.261 36.7922L102.893 34.0723H103.913L101.737 37.4722Z" fill="white"/>
<path d="M48.154 13.197V18.9769H54.0699V20.4729H48.154V28.2927H45.5021V11.701H54.7499V13.197H48.154Z" fill="#003D68"/>
<path d="M67.1937 19.9289C67.1937 23.2609 66.4457 26.9328 62.7058 26.9328C58.8979 26.9328 58.1499 23.3289 58.1499 19.9289C58.1499 16.529 58.9658 12.9251 62.6378 12.9251C66.3097 12.9251 67.1937 16.597 67.1937 19.9289ZM69.8456 19.9969C69.8456 15.3051 67.8056 11.4291 62.6378 11.4291C57.4019 11.4291 55.4299 15.3051 55.4299 19.9969C55.4299 24.7568 57.4699 28.5648 62.6378 28.5648C67.8056 28.5648 69.8456 24.7568 69.8456 19.9969Z" fill="#003D68"/>
<path d="M80.5893 16.4609C80.5893 18.8409 79.0254 20.2008 75.7615 20.2008C75.0815 20.2008 74.3335 20.1328 74.0615 20.0648V13.129C74.6055 12.857 75.3535 12.789 76.3054 12.789C79.2294 12.721 80.5893 13.945 80.5893 16.4609ZM83.7173 28.2926L77.1894 20.9488V20.8808C80.8613 20.8128 83.2413 19.1128 83.2413 16.3249C83.2413 13.197 80.9293 11.361 76.3734 11.361C74.1975 11.361 72.4295 11.769 71.4095 12.245V28.2246H74.0615V20.5408H74.1295L80.7253 28.2926H83.7173Z" fill="#003D68"/>
<path d="M92.0133 28.5648C87.1854 28.5648 84.5334 24.6888 84.5334 19.9969C84.5334 15.373 87.1854 11.4291 92.0133 11.4291C93.7812 11.4291 95.0052 11.8371 95.8892 12.3811L95.2772 13.6731C94.6652 13.3331 93.7132 12.9931 92.4893 12.9931C88.6813 12.9931 87.3214 16.461 87.3214 19.9969C87.3214 23.6009 88.8173 26.8648 92.4893 26.8648C93.7132 26.8648 94.5292 26.5928 95.2772 26.1848L95.9572 27.6128C95.0732 28.2248 93.6452 28.5648 92.0133 28.5648Z" fill="#003D68"/>
<path d="M97.3853 28.2927V11.701H106.633V13.197H100.037V18.9769H105.953V20.4729H100.037V26.7967H106.633V28.2927H97.3853Z" fill="#003D68"/>
<path d="M109.829 7.48535H7.76318V46.8565H110.237V7.48535H109.829ZM109.421 46.0405H8.57917V8.30133H109.421V46.0405Z" fill="#003D68"/>
</svg>
