<svg width="118" height="54" viewBox="0 0 118 54" fill="none" xmlns="http://www.w3.org/2000/svg">
<g clip-path="url(#clip0)">
<path d="M27.6251 36.3833C26.1667 36.6946 24.659 36.6946 23.2006 36.3833C23.2006 36.2552 23.2006 30.209 23.2006 27.3165C23.2218 26.5802 23.1143 25.8458 22.8829 25.1465C22.642 24.4983 22.2526 23.9885 21.543 23.8655C20.5566 23.7066 19.5882 23.7784 18.817 24.5111C18.339 24.9889 18.0274 25.6078 17.928 26.2763C17.8388 26.7693 17.7917 27.269 17.7871 27.7699C17.7743 30.5061 17.7871 36.2399 17.7871 36.3628C16.3317 36.6883 14.8231 36.6944 13.3651 36.3808C13.3472 36.204 13.3395 20.394 13.3651 20.2403C14.5807 19.9839 15.8379 19.9996 17.0467 20.2864C17.1953 20.9832 17.3413 21.6724 17.4976 22.4C17.6385 22.2335 17.7538 22.0977 17.8768 21.9517C18.6863 20.9095 19.8474 20.1974 21.1433 19.9482C22.1025 19.7719 23.0893 19.8174 24.0281 20.0814C24.9098 20.2838 25.7061 20.7568 26.3057 21.4342C26.7872 21.9806 27.1315 22.6341 27.31 23.3403C27.5474 24.2117 27.6621 25.1119 27.6507 26.015C27.6226 29.3456 27.6251 36.2629 27.6251 36.3833Z" fill="#939497"/>
<path d="M82.3465 29.7222C82.3265 30.1106 82.3769 30.4994 82.4951 30.8699C82.6407 31.3357 82.8951 31.7601 83.2373 32.108C83.5794 32.4559 83.9995 32.7174 84.4627 32.8708C85.3188 33.1743 86.2295 33.2931 87.1348 33.2193C88.434 33.1263 89.7174 32.8777 90.9573 32.4789C91.4467 33.1091 91.9078 34.9153 91.8617 35.8094C91.2349 36.0807 90.5802 36.2826 89.9095 36.4115C89.2777 36.5325 88.6396 36.618 87.9982 36.6677C87.1204 36.7372 86.2394 36.7569 85.3594 36.7266C83.847 36.6804 82.3743 36.2311 81.0937 35.4251C79.8844 34.6403 78.9725 33.4732 78.5035 32.1099C78.1935 31.2883 78.0095 30.4246 77.9578 29.548C77.9322 29.0356 77.8809 28.5001 77.904 27.98C77.9809 26.1866 78.3882 24.4701 79.4284 22.9637C79.9664 22.1588 80.6697 21.4778 81.4913 20.9658C82.3129 20.4539 83.2341 20.1227 84.1937 19.9943C84.8084 19.8946 85.4312 19.8534 86.0537 19.8713C86.9941 19.8823 87.9216 20.0918 88.7755 20.4861C89.6293 20.8803 90.3903 21.4505 91.0086 22.1592C91.9232 23.1994 92.3972 24.447 92.6482 25.7998C92.9301 27.3933 92.6816 29.6427 92.6816 29.6427C92.6816 29.6427 83.0331 29.7222 82.3465 29.7222ZM82.3465 26.5632H88.5926C88.5926 24.5521 87.3834 23.6989 86.8223 23.4889C86.0175 23.2058 85.1414 23.1986 84.332 23.4684C83.9272 23.5734 82.5438 24.1422 82.3439 26.5504L82.3465 26.5632Z" fill="#939497"/>
<path d="M49.197 35.9709C48.0409 35.3944 47.083 34.4864 46.4454 33.3628C45.8272 32.2882 45.4447 31.0944 45.3233 29.8606C45.0978 27.2089 45.3617 25.6691 46.2046 23.7733C46.8155 22.4954 47.8167 21.4448 49.0638 20.7732C49.8763 20.3258 50.77 20.0453 51.6924 19.9482C52.4109 19.8619 53.1363 19.8499 53.8573 19.9124C54.7381 19.9861 55.6022 20.1952 56.4193 20.5324C57.7773 21.1053 58.9021 22.12 59.6115 23.412C60.24 24.5594 60.6074 25.8314 60.6875 27.1372C60.749 27.8031 60.7669 28.4724 60.7413 29.1406C60.644 30.7598 60.2674 32.3098 59.3579 33.6882C58.3872 35.1584 56.8753 36.1859 55.1511 36.5473C54.4158 36.719 51.4644 37.1033 49.197 35.9709ZM55.8249 25.395C55.6332 24.7223 55.2034 24.1423 54.6156 23.763C54.0814 23.4574 53.47 23.3132 52.8555 23.348C52.2869 23.3367 51.729 23.5035 51.26 23.8251C50.7909 24.1467 50.4342 24.6069 50.2398 25.1414C49.9582 25.8571 49.7981 26.6147 49.7658 27.3831C49.7325 28.1722 49.7812 28.9639 49.817 29.753C49.8519 30.4441 50.018 31.1223 50.3064 31.7513C50.4305 32.0691 50.6174 32.3586 50.856 32.6025C51.0946 32.8464 51.3799 33.0396 51.695 33.1707C52.4127 33.4613 53.2084 33.4975 53.9495 33.2731C54.4146 33.1473 54.8341 32.8913 55.1588 32.5353C55.5125 32.1168 55.7689 31.6251 55.9094 31.0954C56.1964 30.1706 56.2066 29.2124 56.2425 28.2593C56.2476 27.9775 56.2374 26.3301 55.8198 25.395H55.8249Z" fill="#939497"/>
<path d="M37.4119 30.6982C37.8611 29.1491 38.3068 27.5974 38.7492 26.0431C39.2488 24.2984 40.435 20.2043 40.435 20.2043C41.2194 20.1184 42.008 20.0756 42.7972 20.0763C43.6058 20.0401 44.4154 20.1169 45.2029 20.3043C43.1533 25.6844 41.1472 30.9801 39.1053 36.3551C37.6074 36.6037 36.0788 36.6037 34.5809 36.3551C34.4041 36.1501 28.6166 20.6322 28.5909 20.335C29.234 20.025 32.0573 19.9763 33.4382 20.2633C34.0147 22.2206 34.5962 24.2062 35.1804 26.1891C35.7645 28.1721 36.364 30.2166 36.9533 32.2303C37.0993 31.7128 37.2581 31.2081 37.4119 30.6982Z" fill="#939497"/>
<path d="M105.971 35.8556C106.097 34.7024 106.41 33.5775 106.898 32.525C107.877 32.8906 108.892 33.1483 109.926 33.2936C110.698 33.3852 111.48 33.3313 112.232 33.1348C112.814 32.9733 113.349 32.7043 113.593 32.11C113.785 31.636 113.744 30.829 113.119 30.4498C112.659 30.1998 112.171 30.0046 111.666 29.8682C110.805 29.612 109.934 29.3558 109.086 29.0535C108.313 28.7782 107.627 28.3025 107.098 27.6752C106.755 27.2593 106.532 26.7581 106.452 26.2251C106.362 25.7394 106.321 25.2459 106.329 24.7519C106.391 23.0508 107.121 21.716 108.604 20.8346C109.573 20.2582 110.605 19.8713 112.883 19.8713C114.063 19.8877 115.235 20.06 116.37 20.3837C116.744 20.4888 117.113 20.6118 117.469 20.7219C117.533 21.3727 116.956 23.5401 116.562 23.9372L115.391 23.5734C114.453 23.2662 113.463 23.1478 112.478 23.225C112.157 23.2532 111.842 23.3283 111.543 23.4479C110.977 23.6682 110.746 24.1037 110.774 24.7289C110.785 24.9646 110.87 25.1909 111.017 25.3751C111.164 25.5593 111.367 25.6919 111.594 25.7537C112.345 26.0304 113.111 26.2661 113.877 26.5018C114.686 26.7146 115.462 27.0379 116.183 27.4625C116.619 27.7267 116.994 28.081 117.282 28.5015C117.571 28.9221 117.766 29.3994 117.856 29.9015C118.042 30.7992 118.031 31.7265 117.825 32.6198C117.615 33.4577 117.171 34.2185 116.544 34.8129C115.486 35.8505 114.179 36.3654 112.747 36.6319C110.065 36.9496 107.398 36.5858 105.971 35.8556Z" fill="#939497"/>
<path d="M6.45839 13.4023C6.53525 13.2844 6.5993 13.1973 6.65567 13.1076C8.0622 10.8557 9.47385 8.60367 11.0444 6.44648C12.4365 4.51872 13.9968 2.71827 15.7072 1.0663C16.2119 0.55703 16.8567 0.20925 17.5595 0.0671299C18.1147 -0.056451 18.6944 -0.00911476 19.2222 0.202915C19.4001 0.282847 19.5557 0.405141 19.6754 0.559104C19.7951 0.713067 19.8753 0.89401 19.9089 1.08611C19.9425 1.27822 19.9286 1.47563 19.8683 1.6611C19.808 1.84656 19.7031 2.01443 19.563 2.15003C18.4375 3.18433 17.387 4.29733 16.4194 5.48061C14.6444 7.60908 13.0795 9.9042 11.7463 12.3339C11.1907 13.4293 10.5355 14.4713 9.78898 15.4467C9.37617 15.9902 8.87259 16.4582 8.30046 16.8302C7.58465 17.313 6.73144 17.5504 5.86914 17.5066C4.99118 17.4239 4.15409 17.0963 3.45318 16.5612C2.7393 16.0021 2.1259 15.3254 1.6393 14.5603C1.19222 13.8943 0.780864 13.205 0.40698 12.4953C0.231288 12.1154 0.103077 11.7153 0.0252436 11.304C0.00324999 11.1668 0.00939678 11.0265 0.0433102 10.8917C0.0772236 10.757 0.138195 10.6305 0.222517 10.52C0.470521 10.1475 0.799658 9.83597 1.18524 9.6088C1.57082 9.38162 2.00284 9.2447 2.44888 9.2083C2.70224 9.16124 2.95991 9.14149 3.21748 9.14937C3.49238 9.17008 3.7631 9.22871 4.02194 9.32359C4.165 9.37388 4.29094 9.46357 4.38522 9.58234C4.47951 9.7011 4.53831 9.84409 4.55484 9.99483C4.67495 10.6953 4.95265 11.3594 5.36699 11.9368C5.64112 12.3698 5.94856 12.7848 6.24319 13.2024C6.30908 13.2751 6.38108 13.3419 6.45839 13.4023Z" fill="#D5E14E"/>
<path d="M63.1803 13.5816C64.6243 13.2985 66.1096 13.2985 67.5536 13.5816V36.3679C66.1147 36.6938 64.6218 36.6999 63.1803 36.3859V13.5816Z" fill="#939497"/>
<path d="M99.9448 36.4321C98.4837 36.6333 97.0019 36.6333 95.5408 36.4321V20.2429C96.7302 19.9746 97.9663 19.9912 99.1481 20.2916C99.4205 21.0154 99.5812 21.7765 99.6246 22.5487C99.7156 22.4465 99.8011 22.3396 99.8808 22.2284C100.329 21.6731 100.846 21.1764 101.418 20.7502C101.854 20.4374 102.356 20.2288 102.886 20.1404C103.536 20.0315 104.199 20.0315 104.848 20.1404C104.957 20.1472 105.062 20.1769 105.158 20.2275C105.326 21.5059 105.292 22.8026 105.059 24.0705C102.886 23.9808 102.597 24.1474 102.33 24.2191C101.664 24.3941 101.091 24.8165 100.726 25.4002C100.265 26.1599 100 27.023 99.9576 27.9109C99.9243 29.589 99.9448 36.2271 99.9448 36.4321Z" fill="#939497"/>
<path d="M5.38711 36.3833V23.6374H3.33752C3.04163 22.5391 3.04163 21.3821 3.33752 20.2838H9.74249V36.3833C8.30741 36.6948 6.82219 36.6948 5.38711 36.3833Z" fill="#939497"/>
<path d="M72.1651 20.2943C73.0105 20.0151 75.9389 19.969 76.9586 20.2943C75.593 22.7666 74.2352 25.2313 72.8594 27.7241L77.6349 36.3375C76.8663 36.6526 74.3889 36.6731 72.8671 36.3836L72.0985 35.0001C71.306 33.5757 70.516 32.1512 69.7286 30.7267C69.27 29.8992 68.814 29.0666 68.3503 28.2416C68.2943 28.1526 68.2646 28.0496 68.2646 27.9444C68.2646 27.8393 68.2943 27.7363 68.3503 27.6472C69.3751 25.6865 70.393 23.7223 71.4042 21.7547C71.6399 21.2679 71.8986 20.7965 72.1651 20.2943Z" fill="#939497"/>
</g>
<defs>
<clipPath id="clip0">
<rect width="118" height="54.3421" fill="white"/>
</clipPath>
</defs>
</svg>
