<svg width="118" height="55" viewBox="0 0 118 55" fill="none" xmlns="http://www.w3.org/2000/svg">
<path d="M41.6614 29.0859L40.9581 31.0786H40.8995C40.7823 30.6292 40.5674 29.9455 40.2157 29.1249L36.4452 19.6498H32.7528V34.7514H35.1949V25.4326C35.1949 24.8465 35.1949 24.1822 35.1753 23.3617C35.1558 22.9514 35.1167 22.6389 35.0972 22.4044H35.1558C35.273 22.9905 35.4098 23.4203 35.5074 23.6938L40.0399 34.7124H41.7591L46.2525 23.5961C46.3502 23.3422 46.4478 22.8342 46.5455 22.4044H46.6041C46.5455 23.518 46.5064 24.5143 46.4869 25.12V34.6928H49.0852V19.6107H45.5296L41.6614 29.0859ZM51.5468 23.8696H54.0866V34.6928H51.5468V23.8696ZM52.8362 19.2981C52.4064 19.2981 52.0548 19.4544 51.7617 19.7279C51.4687 20.0014 51.3124 20.3531 51.3124 20.7829C51.3124 21.1932 51.4687 21.5448 51.7617 21.8183C52.0548 22.0918 52.4064 22.2286 52.8362 22.2286C53.266 22.2286 53.6372 22.0723 53.9107 21.8183C54.2038 21.5448 54.3601 21.1932 54.3601 20.7829C54.3601 20.3726 54.2038 20.021 53.9107 19.7279C53.6568 19.4544 53.2856 19.2981 52.8362 19.2981ZM63.0929 23.772C62.624 23.6743 62.1356 23.6157 61.6667 23.6157C60.5141 23.6157 59.4591 23.8696 58.5799 24.3776C57.7008 24.8855 56.9975 25.5889 56.5482 26.468C56.0793 27.3667 55.8448 28.4021 55.8448 29.5938C55.8448 30.6292 56.0793 31.5475 56.5286 32.3875C56.978 33.2081 57.6031 33.8723 58.4432 34.3216C59.2442 34.771 60.1819 35.0054 61.2369 35.0054C62.4482 35.0054 63.4836 34.7514 64.3041 34.2826L64.3237 34.263V31.9187L64.226 31.9968C63.8548 32.2703 63.425 32.5047 62.9952 32.6415C62.5458 32.7978 62.1356 32.8759 61.7839 32.8759C60.768 32.8759 59.967 32.5829 59.4005 31.9382C58.8144 31.313 58.5213 30.4534 58.5213 29.3789C58.5213 28.2653 58.8144 27.3862 59.42 26.7415C60.0256 26.0968 60.8266 25.7647 61.8035 25.7647C62.624 25.7647 63.4641 26.0382 64.226 26.5852L64.3237 26.6634V24.1822L64.3041 24.1627C63.972 24.0259 63.6008 23.8696 63.0929 23.772ZM71.474 23.6938C70.8488 23.6938 70.2627 23.8892 69.7548 24.2994C69.325 24.6511 69.0319 25.1591 68.778 25.7647H68.7584V23.8696H66.2187V34.6928H68.7584V29.164C68.7584 28.2263 68.9538 27.4448 69.3836 26.8783C69.8134 26.2922 70.3604 25.9991 71.0246 25.9991C71.2591 25.9991 71.4935 26.0577 71.7866 26.0968C72.0601 26.1749 72.2554 26.2531 72.3922 26.3508L72.4899 26.4289V23.8892L72.4313 23.8696C72.2554 23.7524 71.9038 23.6938 71.474 23.6938ZM78.3899 23.6352C76.6121 23.6352 75.1859 24.1627 74.1895 25.1981C73.1737 26.2336 72.6852 27.6597 72.6852 29.4571C72.6852 31.1372 73.1932 32.5047 74.17 33.5011C75.1468 34.4779 76.4753 34.9859 78.1359 34.9859C79.8746 34.9859 81.2617 34.4584 82.2581 33.4034C83.274 32.3485 83.7624 30.9418 83.7624 29.2031C83.7624 27.4839 83.2935 26.1163 82.3362 25.12C81.418 24.1236 80.07 23.6352 78.3899 23.6352ZM80.4217 31.9577C79.9528 32.5634 79.2104 32.8564 78.2922 32.8564C77.374 32.8564 76.6316 32.5634 76.1041 31.9187C75.5766 31.313 75.3227 30.4339 75.3227 29.3203C75.3227 28.1677 75.5962 27.2885 76.1041 26.6634C76.6316 26.0382 77.3544 25.7256 78.2727 25.7256C79.1713 25.7256 79.8746 26.0187 80.3826 26.6243C80.8905 27.2299 81.164 28.109 81.164 29.2617C81.125 30.4339 80.9101 31.3521 80.4217 31.9577ZM89.428 28.363C88.627 28.0309 88.119 27.7769 87.8846 27.562C87.6892 27.3667 87.5915 27.0932 87.5915 26.7415C87.5915 26.4485 87.7087 26.1554 88.0018 25.96C88.2948 25.7647 88.627 25.667 89.1154 25.667C89.5452 25.667 89.9945 25.7451 90.4243 25.8624C90.8541 25.9796 91.2448 26.1554 91.5574 26.3898L91.6551 26.468V24.0845L91.5965 24.065C91.3034 23.9478 90.9127 23.8306 90.4438 23.7329C89.975 23.6547 89.5452 23.6157 89.1935 23.6157C87.9823 23.6157 86.9859 23.9087 86.2044 24.5534C85.423 25.1591 85.0518 25.9796 85.0518 26.9369C85.0518 27.4448 85.1299 27.8941 85.3058 28.2653C85.4816 28.6365 85.7356 28.9882 86.0872 29.2812C86.4389 29.5547 86.9468 29.8673 87.6501 30.1604C88.2362 30.4143 88.6856 30.6097 88.9591 30.766C89.2326 30.9223 89.4084 31.0981 89.5452 31.2349C89.6428 31.3912 89.7015 31.5865 89.7015 31.8405C89.7015 32.5634 89.1544 32.915 88.0409 32.915C87.6111 32.915 87.1617 32.8369 86.6342 32.661C86.1068 32.4852 85.6184 32.2312 85.2081 31.9382L85.1104 31.86V34.3412L85.169 34.3607C85.5402 34.5365 85.9895 34.6538 86.5366 34.7905C87.0836 34.8882 87.572 34.9663 88.0018 34.9663C89.3107 34.9663 90.3852 34.6733 91.1472 34.0286C91.9286 33.4034 92.3389 32.6024 92.3389 31.567C92.3389 30.8441 92.1435 30.1994 91.7137 29.711C91.1472 29.2422 90.4438 28.7538 89.428 28.363ZM99.0399 23.6352C97.2621 23.6352 95.8359 24.1627 94.8395 25.1981C93.8432 26.2336 93.3352 27.6597 93.3352 29.4571C93.3352 31.1372 93.8432 32.5047 94.82 33.5011C95.7968 34.4779 97.1253 34.9859 98.7859 34.9859C100.525 34.9859 101.912 34.4584 102.908 33.4034C103.924 32.3485 104.412 30.9418 104.412 29.2031C104.412 27.4839 103.944 26.1163 102.986 25.12C102.068 24.1236 100.72 23.6352 99.0399 23.6352ZM101.052 31.9577C100.583 32.5634 99.8409 32.8564 98.9226 32.8564C97.9849 32.8564 97.2621 32.5634 96.7346 31.9187C96.2071 31.313 95.9531 30.4339 95.9531 29.3203C95.9531 28.1677 96.2266 27.2885 96.7346 26.6634C97.2621 26.0382 97.9849 25.7256 98.9031 25.7256C99.7822 25.7256 100.505 26.0187 101.013 26.6243C101.521 27.2299 101.795 28.109 101.795 29.2617C101.795 30.4339 101.541 31.3521 101.052 31.9577ZM117.99 25.96V23.8696H115.431V20.6657L115.353 20.6852L112.93 21.4081L112.872 21.4276V23.8696H109.043V22.5021C109.043 21.8769 109.199 21.3885 109.472 21.0759C109.746 20.7634 110.156 20.6071 110.664 20.6071C111.016 20.6071 111.387 20.6852 111.797 20.861L111.895 20.9196V18.712L111.836 18.6925C111.485 18.5753 111.016 18.4971 110.41 18.4971C109.648 18.4971 108.984 18.673 108.378 18.966C107.773 19.2981 107.323 19.7475 106.991 20.3531C106.659 20.9392 106.483 21.6034 106.483 22.3653V23.8696H104.705V25.9405H106.483V34.6928H109.043V25.96H112.872V31.5279C112.872 33.8137 113.946 34.9663 116.095 34.9663C116.447 34.9663 116.818 34.9077 117.17 34.8491C117.541 34.771 117.814 34.6733 117.971 34.5951L117.99 34.5756V32.4852L117.893 32.5634C117.736 32.661 117.599 32.7392 117.365 32.7978C117.17 32.8564 116.994 32.8759 116.857 32.8759C116.349 32.8759 115.997 32.7587 115.744 32.4657C115.509 32.1922 115.392 31.7428 115.392 31.0786V25.96H117.99Z" fill="#737373"/>
<path d="M0.00976562 14.5701H11.9856V26.5459H0.00976562V14.5701Z" fill="#F25022"/>
<path d="M13.236 14.5701H25.2118V26.5459H13.236V14.5701Z" fill="#7FBA00"/>
<path d="M0.00976562 27.7962H11.9856V39.772H0.00976562V27.7962Z" fill="#00A4EF"/>
<path d="M13.236 27.7962H25.2118V39.772H13.236V27.7962Z" fill="#FFB900"/>
</svg>
