<svg width="118" height="55" viewBox="0 0 118 55" fill="none" xmlns="http://www.w3.org/2000/svg">
<path d="M38.9306 12.0804C38.9306 12.0804 -0.511516 11.179 0.0846947 23.5681C0.393447 29.9064 11.7534 30.311 11.7534 30.311C11.7534 30.311 6.16569 29.4113 5.35654 24.6647C3.38337 13.0989 38.9306 12.0804 38.9306 12.0804Z" fill="#B21F38"/>
<path d="M13.2528 35.6289H20.2299V30.3056H25.6934C29.1819 30.3056 31.8666 28.8594 31.8666 24.8208C31.8666 20.5054 29.0666 19.0592 25.0741 19.0592H13.2528V35.6307V35.6289ZM20.2299 22.546H22.3415C24.3395 22.546 25.028 23.2557 25.028 24.6345C25.028 26.2652 24.1407 26.8153 21.6565 26.8153H20.237V22.546H20.2299Z" fill="#205196"/>
<path d="M32.885 35.6289H39.6279V31.5655C39.6279 29.4362 40.5151 28.1231 43.4358 28.1231H44.6992V23.671C41.9222 23.7864 40.3377 24.2442 39.4203 27.0424H39.3742L39.2127 24.1058H32.7484C32.885 25.1154 32.885 26.6308 32.885 28.3963V35.6272V35.6289Z" fill="#205196"/>
<path d="M63.2279 30.7865V30.1655C63.2279 25.0711 58.7758 23.671 54.3699 23.671C49.2737 23.671 45.5101 25.4614 45.5101 29.9366C45.5101 34.2963 49.1584 36.0655 54.5598 36.0655C60.5041 36.0655 62.8677 34.2289 63.077 32.3001H56.4566C56.2792 33.0347 55.7469 33.6309 54.4373 33.6309C52.9007 33.6309 52.1199 32.7437 52.1199 30.7918L63.2279 30.7865ZM52.1199 28.5827C52.1199 27.0673 52.9237 26.0984 54.3699 26.0984C55.9066 26.0984 56.6181 27.085 56.6181 28.5827H52.1199Z" fill="#205196"/>
<path d="M76.4102 35.6289L81.7814 24.1075H76.5167L73.1204 32.2912L69.8998 24.1075H63.0487L68.443 35.6289H76.4102Z" fill="#205196"/>
<path d="M88.3187 27.4346C88.434 26.7248 88.9167 26.1038 90.4782 26.1038C91.9687 26.1038 92.4513 26.9768 92.4513 27.9403V28.5827H90.5917C85.8007 28.5827 81.5031 29.2481 81.5031 32.6905C81.5031 34.2289 82.4914 35.1924 83.6608 35.6289C84.6261 35.9963 86.0705 36.0655 87.5166 36.0655C89.8802 36.0655 91.6706 35.5828 92.9553 33.9752L93.0706 35.6289H99.0842C98.9845 35.122 98.9304 34.6071 98.9227 34.0905V28.6057C98.9227 24.9326 96.2167 23.671 90.18 23.671C88.4056 23.671 86.4537 23.8485 84.9224 24.4287C83.3911 25.0089 82.2838 25.9423 82.1915 27.4346H88.3187ZM92.4513 30.7865V31.1538C92.4513 32.5308 91.3955 33.638 89.7205 33.638C88.5493 33.638 87.9762 32.9957 87.9762 32.3303C87.9762 31.3667 88.9859 30.7936 91.6031 30.7936L92.4513 30.7865Z" fill="#205196"/>
<path d="M117.35 27.4346C117.35 24.3826 114.114 23.671 108.973 23.671C103.694 23.671 100.663 24.8421 100.663 27.7788C100.663 29.1345 101.675 30.2347 103.669 30.5558L108.192 31.2656C110.877 31.6791 111.314 31.8388 111.314 32.6195C111.314 33.308 110.51 33.6292 109.019 33.6292C108.192 33.6292 107.617 33.5848 107.227 33.3541C106.837 33.1234 106.654 32.781 106.539 32.2895H100.34C100.477 34.7737 102.154 36.0548 109.452 36.0548C115.373 36.0548 117.922 34.8375 117.922 32.2895C117.922 29.9951 116.108 29.2605 112.527 28.7406L110.212 28.391C107.227 27.9563 106.998 27.7717 106.998 27.1063C106.998 26.4871 107.825 26.0967 108.925 26.0967C109.437 26.0705 109.948 26.1647 110.417 26.3717C110.832 26.5733 111.111 26.9772 111.152 27.4364L117.35 27.4346Z" fill="#205196"/>
</svg>
