<svg width="118" height="55" viewBox="0 0 118 55" fill="none" xmlns="http://www.w3.org/2000/svg">
<path d="M47.796 12.6287H65.8204C70.4927 12.6287 74.0234 13.1937 76.4127 14.3235C78.8083 15.4576 79.9519 16.6331 79.9455 19.223L79.9646 37.1231C79.9646 37.1231 80.0761 39.1174 83.5453 39.1174C87.6357 39.1174 87.3681 37.1741 87.3681 37.1741V12.6255H99.6774V35.371C99.6296 37.6328 98.623 38.9708 96.4535 40.3183C93.2902 42.0991 85.1636 42.0067 85.1636 42.0067H81.8283C77.1815 42.0067 73.6443 41.4397 71.2169 40.3056C68.7894 39.1715 67.5789 37.5245 67.5852 35.3647V15.499H60.1022V47.3554H47.796V12.6287Z" fill="#949494" stroke="#949494" stroke-width="1.73401" stroke-linecap="round" stroke-linejoin="round"/>
<path d="M24.7798 40.312C26.1369 41.0575 29.7717 42.0036 34.6266 42.0036H45.6872V39.1174H37.0254C33.4607 39.1206 33.4607 37.155 33.4607 37.155L33.432 15.5118H45.6776V12.6447H33.4288V6.987H21.1482V12.6256H18.3225V15.4927H21.1482V35.3711C21.1482 38.4675 23.6712 39.8151 24.7798 40.312Z" fill="#949494" stroke="#949494" stroke-width="1.73401" stroke-linecap="round" stroke-linejoin="round"/>
</svg>
