<svg width="118" height="54" viewBox="0 0 118 54" fill="none" xmlns="http://www.w3.org/2000/svg">
<path d="M0.0908203 15.4985H14.9021V18.4706H9.44023V27.4516H5.55315V18.4706H0.0908203L0.0908203 15.4985Z" fill="black"/>
<path d="M20.4887 21.3765H26.9141C27.9644 21.3765 28.3498 20.9802 28.3498 20.1211V19.7258C28.3498 18.6683 27.7892 18.4706 26.5639 18.4706H20.4887V21.3765ZM16.6021 15.4985H28.3322C31.3258 15.4985 32.1313 16.9019 32.1313 19.0485V19.8075C32.1313 21.4098 31.7463 22.3499 29.9599 22.7467V22.7797C31.1156 22.9779 32.0789 23.4573 32.0789 25.4214V27.4516H28.1923V26.0158C28.1923 24.7612 27.807 24.3478 26.5984 24.3478H20.4887V27.4516H16.6021V15.4985Z" fill="black"/>
<path d="M34.9691 27.4516H38.8552V15.4985H34.9691V27.4516Z" fill="black"/>
<path d="M41.6919 15.4985H54.9277V18.3713H45.579V20.6011H54.4902V23.3741H45.579V27.4516H41.6919V15.4985Z" fill="black"/>
<path d="M60.9868 22.119C60.9868 23.8526 61.372 24.5133 63.2102 24.5133H68.1821C70.0213 24.5133 70.4055 23.8526 70.4055 22.119V20.8317C70.4055 19.3459 70.0213 18.4378 67.9731 18.4378H63.4204C61.372 18.4378 60.9868 19.3459 60.9868 20.8317V22.119ZM56.9957 19.6925C56.9957 16.1922 59.0787 15.3673 62.5806 15.3673H68.8127C72.3143 15.3673 74.3978 16.1922 74.3978 19.6925V23.2582C74.3978 26.7587 72.3143 27.5839 68.8127 27.5839H62.5806C59.0787 27.5839 56.9957 26.7587 56.9957 23.2582V19.6925Z" fill="black"/>
<path d="M80.6326 21.3765H87.0572C88.1085 21.3765 88.4926 20.9802 88.4926 20.1211V19.7258C88.4926 18.6683 87.9324 18.4706 86.7075 18.4706H80.6326V21.3765ZM76.7452 15.4985H88.4752C91.47 15.4985 92.2745 16.9019 92.2745 19.0485V19.8075C92.2745 21.4098 91.8895 22.3499 90.104 22.7467V22.7797C91.2595 22.9779 92.2228 23.4573 92.2228 25.4214V27.4516H88.3352V26.0158C88.3352 24.7612 87.9502 24.3478 86.7423 24.3478H80.6326V27.4516H76.7452V15.4985Z" fill="black"/>
<path d="M94.9027 15.4985H98.7881V19.8907H100.61L105.511 15.4985H110.799L103.936 21.3435L111.605 27.4516H106.107L100.504 22.8629H98.7881V27.4516H94.9027V15.4985Z" fill="black"/>
<path d="M114.233 27.4515H117.909V24.0836H114.233V27.4515Z" fill="#FF6600"/>
<path d="M20.4996 38.077C20.4996 38.2279 20.4098 38.3526 20.2307 38.451C20.0512 38.5493 19.8739 38.5983 19.6987 38.5983C19.5764 38.5983 19.4622 38.5377 19.3554 38.417C19.2483 38.2961 19.1952 38.1716 19.1952 38.0428C19.1952 37.9523 19.2333 37.8463 19.3096 37.7256C19.3475 37.6653 19.4812 37.499 19.7101 37.2269C19.9008 37.3025 20.0722 37.412 20.225 37.5553C20.4081 37.7294 20.4996 37.9031 20.4996 38.077Z" fill="black"/>
<path d="M24.7102 38.077C24.7102 38.2279 24.6203 38.3526 24.4413 38.451C24.262 38.5493 24.0844 38.5983 23.9092 38.5983C23.7869 38.5983 23.6728 38.5377 23.566 38.417C23.4589 38.2961 23.4058 38.1716 23.4058 38.0428C23.4058 37.9523 23.4439 37.8463 23.5202 37.7256C23.5581 37.6653 23.6918 37.499 23.9207 37.2269C24.1114 37.3025 24.2828 37.412 24.4356 37.5553C24.6187 37.7294 24.7102 37.9031 24.7102 38.077Z" fill="black"/>
<path d="M28.9206 38.077C28.9206 38.2279 28.831 38.3526 28.652 38.451C28.4725 38.5493 28.2949 38.5983 28.1197 38.5983C27.9974 38.5983 27.8832 38.5377 27.7764 38.417C27.6694 38.2961 27.6162 38.1716 27.6162 38.0428C27.6162 37.9523 27.6544 37.8463 27.7306 37.7256C27.7685 37.6653 27.9023 37.499 28.1311 37.2269C28.3218 37.3025 28.4932 37.412 28.646 37.5553C28.8291 37.7294 28.9206 37.9031 28.9206 38.077Z" fill="black"/>
<path d="M36.7474 34.3785C36.7474 34.546 36.7245 34.6541 36.6787 34.7038C36.6329 34.7532 36.53 34.8121 36.37 34.8808C36.1941 34.8425 36.015 34.8009 35.832 34.7548C35.6489 34.7095 35.4773 34.6866 35.3171 34.6866C34.9433 34.6866 34.6248 34.8064 34.3616 35.0459C34.0984 35.2854 33.9669 35.5835 33.9669 35.9409C33.9669 36.23 34.0086 36.5645 34.0927 36.9446C34.2911 37.8415 34.3902 38.4082 34.3902 38.6438C34.2529 38.6438 34.1444 38.6495 34.0641 38.6607C33.984 38.6714 33.8524 38.6992 33.6694 38.7436C33.6083 38.4704 33.532 37.7942 33.4405 36.7154C33.4021 36.2523 33.3451 35.8458 33.2689 35.4963C32.9103 35.7094 32.5518 35.9183 32.1933 36.1236C31.7127 36.3823 31.3389 36.5113 31.0719 36.5113H31.0033L30.9918 36.2376C30.9918 35.9183 31.2166 35.656 31.6669 35.4507C32.7501 34.9568 33.3184 34.6296 33.3718 34.47C33.4021 33.7249 33.4293 33.0979 33.4519 32.5883C33.5053 31.6073 33.6996 31.1172 34.0355 31.1172C34.1573 31.1172 34.2605 31.1438 34.3445 31.197C34.4284 31.2502 34.4703 31.3339 34.4703 31.4477C34.4703 31.6534 34.3921 32.0333 34.2357 32.5883C34.0794 33.1433 34.0012 33.5614 34.0012 33.8425C34.0012 33.934 34.005 34.0236 34.0126 34.1107C34.0202 34.1982 34.0431 34.3179 34.0813 34.47C34.8365 34.2951 35.5917 34.1202 36.3469 33.9454C36.6139 33.9454 36.7474 34.0898 36.7474 34.3785Z" fill="black"/>
<path d="M42.9148 38.0394C42.762 38.2447 42.6247 38.4006 42.5026 38.507C42.3043 38.6819 42.1174 38.7693 41.9422 38.7693L41.6788 38.655C41.473 38.3664 41.3243 37.7543 41.2325 36.8192C41.1183 35.7016 41.0268 35.025 40.9581 34.7893C40.6909 34.9946 40.3896 35.4358 40.0542 36.1122C39.7867 36.6748 39.5219 37.2338 39.2589 37.7886C38.9955 38.3438 38.7953 38.621 38.658 38.621C38.5588 38.621 38.4901 38.5716 38.452 38.4728C38.4139 38.374 38.395 38.264 38.395 38.1421C38.395 38.0204 38.4062 37.8798 38.4291 37.7201C38.4825 37.34 38.5092 37.1043 38.5092 37.0131C38.5092 36.5039 38.5206 35.7434 38.5438 34.7323C38.5664 33.7211 38.5779 32.9611 38.5779 32.4515C38.5779 32.193 38.6124 31.9383 38.6808 31.6874C38.78 31.3151 38.9249 31.1286 39.1157 31.1286C39.375 31.1286 39.5047 31.254 39.5047 31.5049C39.5047 31.5429 39.3865 32.136 39.1502 33.284C39.0279 33.877 38.9669 34.3483 38.9669 34.6981C38.9669 35.1925 39.0165 35.6634 39.1157 36.1122C39.3216 36.0133 39.7717 35.4241 40.4659 34.3445C40.7557 33.896 41.0151 33.6717 41.2442 33.6717C41.5646 33.6717 41.7548 34.0328 41.8161 34.7548C41.8313 35.4393 41.8523 36.1388 41.879 36.8532C41.9057 37.5681 42.0564 37.9406 42.331 37.971L42.9148 38.0394Z" fill="black"/>
<path d="M47.1712 31.824C47.1712 31.9383 47.1331 32.0466 47.057 32.1495C46.9805 32.2519 46.8854 32.3032 46.7707 32.3032C46.6182 32.3032 46.4847 32.2348 46.3705 32.0979C46.2558 31.9611 46.1986 31.8128 46.1986 31.6534C46.1986 31.562 46.2332 31.4783 46.3018 31.4023C46.3705 31.3265 46.458 31.288 46.5648 31.288C46.7173 31.288 46.8568 31.3396 46.9824 31.4422C47.1083 31.5446 47.1712 31.6724 47.1712 31.824ZM46.5192 34.1963C46.5192 34.4246 46.4809 34.6943 46.4046 35.006C46.3741 35.12 46.2253 35.5952 45.9583 36.4315C45.9052 36.6063 45.8668 36.8819 45.8441 37.2583C45.821 37.6346 45.7829 37.9423 45.7295 38.182C45.6763 38.4215 45.5276 38.6096 45.2832 38.7465C45.268 38.7237 45.2222 38.6819 45.1459 38.6211C45.0391 38.5298 44.9857 38.4386 44.9857 38.3474C44.9857 38.2941 44.9991 38.22 45.0258 38.125C45.0525 38.0299 45.0699 37.9675 45.0775 37.9368C45.1154 37.7698 45.1421 37.5757 45.1576 37.3554C45.1726 37.135 45.1802 36.9219 45.1802 36.7166C45.1802 36.5339 45.2663 36.0513 45.4379 35.268C45.6093 34.4854 45.7333 34.048 45.8096 33.9568C45.8856 33.8656 45.9488 33.8069 45.9984 33.78C46.048 33.7534 46.1071 33.7401 46.1757 33.7401C46.2825 33.7401 46.3664 33.7898 46.4275 33.8884C46.4885 33.9875 46.5192 34.0899 46.5192 34.1963Z" fill="black"/>
<path d="M52.9152 38.3474C52.9152 38.4462 52.8616 38.5527 52.755 38.6667C52.6482 38.781 52.5412 38.8378 52.4346 38.8378C52.366 38.8378 52.2802 38.8109 52.1772 38.7579C52.0742 38.7047 52.0036 38.6667 51.9653 38.6439C51.5307 38.4006 51.237 37.9368 51.0844 37.2526C50.985 36.8193 50.9357 36.211 50.9357 35.4277C50.9357 35.3215 50.9357 35.2324 50.9357 35.16C50.9357 35.0877 50.9357 35.0288 50.9357 34.9832C50.6685 35.2189 50.2794 36.0397 49.7686 37.4462C49.5318 38.0927 49.2727 38.5261 48.9905 38.7465C48.8303 38.5869 48.7235 38.3856 48.6701 38.1421C48.6167 37.8988 48.59 37.6251 48.59 37.321C48.59 37.131 48.6052 36.8459 48.6358 36.4657C48.6663 36.0858 48.6815 35.7967 48.6815 35.599C48.6815 35.5076 48.6603 35.3479 48.6184 35.1201C48.5766 34.8917 48.5557 34.7437 48.5557 34.6751C48.5557 34.5235 48.5917 34.3999 48.6644 34.3047C48.7368 34.2096 48.8491 34.1621 49.0019 34.1621C49.2308 34.1621 49.3831 34.5004 49.4596 35.1773C49.4901 35.4584 49.5054 35.9031 49.5054 36.5113L49.6072 36.4087C49.7504 35.8005 49.9171 35.2952 50.1059 34.8917C50.4229 34.2153 50.7817 33.877 51.1817 33.877C51.4005 33.877 51.5555 34.082 51.6461 34.4928C51.7143 34.8045 51.7481 35.211 51.7481 35.7133V36.1179V36.5567C51.7481 36.9675 51.771 37.2757 51.8165 37.4807C51.8625 37.6857 51.9426 37.819 52.057 37.8798C52.2783 37.933 52.4499 37.9711 52.5717 37.9939C52.8008 38.0473 52.9152 38.1649 52.9152 38.3474Z" fill="black"/>
<path d="M58.8422 38.1421C58.7049 38.3018 58.5807 38.412 58.4701 38.4728C58.3597 38.5336 58.251 38.5643 58.144 38.5643C58.0984 38.5643 57.7018 38.4272 56.9542 38.1535C56.4886 37.9865 56.0233 37.8152 55.5582 37.6403C55.5503 37.6935 55.5468 37.7658 55.5468 37.857C55.5468 37.9558 55.5523 38.0813 55.5639 38.2333C55.5754 38.3856 55.5809 38.4652 55.5809 38.4728C55.5809 38.5869 55.5198 38.6855 55.398 38.7693C55.3599 38.7995 55.2416 38.8565 55.0431 38.9404C55.0049 38.9021 54.9706 38.8527 54.9403 38.7919C54.9096 38.7313 54.8791 38.655 54.8488 38.5638C54.7875 38.3892 54.7458 38.1609 54.7229 37.8796C54.7 37.598 54.6884 37.3279 54.6884 37.0694C54.6884 36.9782 54.6884 36.91 54.6884 36.8639C54.6884 36.4001 54.7303 35.6966 54.8145 34.7534C54.8981 33.8107 54.9403 33.1072 54.9403 32.6432C54.9403 32.5365 54.9191 32.3617 54.8772 32.1184C54.8352 31.8746 54.8145 31.715 54.8145 31.6389C54.8145 31.3424 54.9592 31.1372 55.2493 31.0231C55.4705 31.5556 55.5809 32.1148 55.5809 32.7007C55.5809 32.9594 55.5542 33.2712 55.501 33.6361C55.3789 34.4733 55.3179 34.9903 55.3179 35.1885L55.352 35.599C55.8939 35.4469 56.4126 35.082 56.9084 34.5044C57.3201 34.0252 57.6558 33.4743 57.9151 32.8506C58.0448 32.9191 58.1499 33.0008 58.23 33.0958C58.3101 33.1908 58.3502 33.3068 58.3502 33.4436C58.3502 33.8012 58.1213 34.1925 57.6636 34.6183C57.6176 34.6639 57.1869 35.0022 56.3706 35.6332C55.9053 35.9981 55.6726 36.2718 55.6726 36.4543C55.6726 36.8119 56.3056 37.2295 57.5721 37.7087C58.2736 37.952 58.6972 38.0965 58.8422 38.1421Z" fill="black"/>
<path d="M70.0214 37.3894C70.0214 37.6936 69.6781 37.9901 68.9916 38.2787C68.404 38.5225 67.9312 38.6439 67.5727 38.6439C67.115 38.6439 66.7374 38.5605 66.4399 38.393C66.0661 38.1801 65.8792 37.857 65.8792 37.4237C65.8792 37.2108 65.9555 37.072 66.1081 37.0074C66.2606 36.9428 66.4628 36.9102 66.7143 36.9102C66.8518 36.9102 66.951 36.9409 67.0118 37.0017C67.0728 37.0625 67.1265 37.1728 67.1722 37.3324L66.4514 37.5261V37.6403C66.4514 37.8306 66.6189 37.9675 66.9548 38.0509C67.1911 38.1117 67.4354 38.1421 67.6871 38.1421C67.9618 38.1421 68.2707 38.0547 68.614 37.8798C69.0104 37.6745 69.209 37.4505 69.209 37.207C69.209 36.8575 68.9131 36.5966 68.3222 36.426C67.731 36.2547 67.1493 36.0894 66.5772 35.93C65.9593 35.6715 65.6504 35.2681 65.6504 34.7209C65.6504 34.1433 66.0125 33.6717 66.7374 33.3068C67.3398 33.0027 67.9618 32.8506 68.6025 32.8506C68.8466 32.8506 69.045 32.9343 69.1975 33.1015C69.3501 33.2688 69.4266 33.4779 69.4266 33.7288C69.4266 33.9568 69.3634 34.1376 69.2376 34.2704C69.1117 34.4037 68.9382 34.47 68.717 34.47C68.7243 34.2878 68.7284 34.1471 68.7284 34.0481C68.7284 33.82 68.6843 33.6622 68.5968 33.575C68.5091 33.4874 68.3508 33.4437 68.122 33.4437C67.7634 33.4437 67.3858 33.5615 66.9891 33.7972C66.5388 34.0635 66.3141 34.3598 66.3141 34.6867C66.3141 34.9758 66.6344 35.2379 67.2752 35.4736C68.4118 35.8917 69.0068 36.1122 69.0602 36.135C69.701 36.4622 70.0214 36.8803 70.0214 37.3894Z" fill="black"/>
<path d="M76.3031 35.804C76.3031 35.3559 76.1121 35.0288 75.731 34.8235C75.4335 34.6639 75.0444 34.584 74.5638 34.584C74.0222 34.584 73.5319 34.8178 73.0935 35.2854C72.6546 35.753 72.4353 36.2602 72.4353 36.8078C72.4353 37.2338 72.5614 37.5681 72.8131 37.8114C73.0649 38.0547 73.4003 38.1763 73.8201 38.1763C74.4608 38.1763 75.0349 37.9387 75.5422 37.4636C76.0494 36.9886 76.3031 36.4353 76.3031 35.804ZM76.8638 35.9409C76.8638 36.709 76.5205 37.3818 75.8337 37.9594C75.1855 38.507 74.4644 38.781 73.6713 38.781C73.0763 38.781 72.6129 38.604 72.2811 38.2504C71.9492 37.8969 71.7833 37.4198 71.7833 36.8192C71.7833 36.0133 72.0482 35.3424 72.5786 34.8064C73.1087 34.2704 73.7817 34.0022 74.5982 34.0022C75.3076 34.0022 75.8492 34.1433 76.223 34.4246C76.6499 34.7437 76.8638 35.2493 76.8638 35.9409Z" fill="black"/>
<path d="M84.484 30.8832C84.484 31.1027 84.4328 31.3147 84.3298 31.5187C84.2268 31.7231 84.0838 31.8974 83.9007 32.0407C83.8854 31.973 83.8776 31.892 83.8776 31.7977C83.8776 31.7031 83.8776 31.6295 83.8776 31.5765C83.8776 31.1766 83.8549 30.9162 83.8089 30.7953C83.7176 30.5539 83.5038 30.433 83.1684 30.433C82.4971 30.433 81.9669 30.782 81.5779 31.4798C81.2499 32.0638 81.0859 32.7159 81.0859 33.4365C81.0859 34.4002 81.2346 34.9841 81.5321 35.1887C81.7305 35.3255 82.314 35.3937 83.2828 35.3937C83.4583 35.3937 83.6185 35.4393 83.7634 35.5306C83.9083 35.6218 83.9808 35.7513 83.9808 35.9183C83.9808 36.078 83.8776 36.1578 83.6719 36.1578C83.5648 36.1578 83.3972 36.1236 83.1684 36.0552C82.9395 35.9867 82.7641 35.9525 82.642 35.9525C82.5121 35.9525 82.396 35.9639 82.293 35.9867C82.1898 36.0098 82.0394 36.0514 81.8411 36.1122C81.9934 36.5752 82.11 36.9687 82.1898 37.2913C82.2702 37.6139 82.3102 37.8589 82.3102 38.0259C82.3102 38.2081 82.274 38.3602 82.2015 38.4816C82.129 38.603 82.0089 38.6904 81.8411 38.7437C81.719 38.2272 81.6082 37.7869 81.5092 37.4222C81.4406 37.187 81.3107 36.7501 81.1202 36.1122C81.0973 36.1198 80.5977 36.2566 79.6212 36.5227C79.3998 36.5835 79.1788 36.6444 78.9576 36.7052C78.7745 36.7052 78.6064 36.6786 78.4541 36.6254C78.5609 36.3521 78.9309 36.1058 79.564 35.8853C79.6632 35.8478 80.1133 35.7185 80.9142 35.4983V35.3956C80.9142 35.2212 80.8189 34.8036 80.6282 34.1433C80.529 33.8017 80.4794 33.5247 80.4794 33.3123C80.4794 32.5154 80.75 31.7221 81.2918 30.9326C81.8942 30.06 82.5848 29.6233 83.3629 29.6233C83.6985 29.6233 83.9694 29.748 84.1753 29.9977C84.3813 30.2479 84.484 30.5427 84.484 30.8832Z" fill="black"/>
<path d="M91.2809 34.3785C91.2809 34.546 91.258 34.6541 91.2123 34.7038C91.1665 34.7532 91.0635 34.8121 90.9033 34.8808C90.7276 34.8425 90.5486 34.8009 90.3653 34.7548C90.1825 34.7095 90.0108 34.6866 89.8506 34.6866C89.4768 34.6866 89.1584 34.8064 88.8949 35.0459C88.632 35.2854 88.5004 35.5835 88.5004 35.9409C88.5004 36.23 88.5421 36.5645 88.626 36.9446C88.8244 37.8415 88.9238 38.4082 88.9238 38.6438C88.7862 38.6438 88.6778 38.6495 88.5974 38.6607C88.5173 38.6714 88.386 38.6992 88.2029 38.7436C88.1416 38.4704 88.0656 37.7942 87.9741 36.7154C87.9357 36.2523 87.8787 35.8458 87.8022 35.4963C87.4439 35.7094 87.0854 35.9183 86.7268 36.1236C86.2463 36.3823 85.8725 36.5113 85.6055 36.5113H85.5368L85.5254 36.2376C85.5254 35.9183 85.7502 35.656 86.2005 35.4507C87.2837 34.9568 87.8518 34.6296 87.9054 34.47C87.9357 33.7249 87.9626 33.0979 87.9855 32.5883C88.0389 31.6073 88.2332 31.1172 88.5691 31.1172C88.6909 31.1172 88.7941 31.1438 88.878 31.197C88.9619 31.2502 89.0039 31.3339 89.0039 31.4477C89.0039 31.6534 88.9255 32.0333 88.7693 32.5883C88.6129 33.1433 88.5347 33.5614 88.5347 33.8425C88.5347 33.934 88.5383 34.0236 88.5462 34.1107C88.5538 34.1982 88.5765 34.3179 88.6148 34.47C89.37 34.2951 90.1252 34.1202 90.8802 33.9454C91.1474 33.9454 91.2809 34.0898 91.2809 34.3785Z" fill="black"/>
<path d="M98.5355 34.753C98.5355 35.6128 98.4363 36.4151 98.238 37.1604C97.9405 38.2861 97.4787 38.8492 96.8535 38.8492C96.5939 38.8492 96.365 38.6551 96.1669 38.2676C95.9838 37.7962 95.8618 37.4845 95.8008 37.3324C95.6177 37.4085 95.2401 37.6936 94.668 38.188C94.2103 38.5831 93.7793 38.781 93.375 38.781C93.0467 38.781 92.8829 38.6211 92.8829 38.3018C92.8829 38.0435 92.9554 37.7698 93.1003 37.4807C93.3139 37.0625 93.5275 36.6408 93.7409 36.2148C93.8479 35.8195 93.9621 35.4185 94.0844 35.0115C94.2064 34.605 94.4694 34.3258 94.8742 34.1735C94.9347 34.3408 94.9655 34.508 94.9655 34.6751C94.9655 35.0478 94.7783 35.6218 94.4048 36.3971C94.0308 37.1728 93.8441 37.6556 93.8441 37.8456V38.0395C94.4184 37.8722 94.897 37.4921 95.2801 36.8991C95.4637 36.618 95.7049 36.1084 96.0036 35.3709C96.2103 34.8616 96.3903 34.6069 96.5433 34.6069C96.6353 34.6069 96.708 34.6582 96.7614 34.7608C96.8151 34.8635 96.842 34.9716 96.842 35.0858C96.842 35.2379 96.8151 35.4242 96.7619 35.6444C96.6399 36.1464 96.5788 36.4695 96.5788 36.614C96.5788 36.9029 96.6146 37.1994 96.6866 37.5035C96.7104 37.5874 96.7622 37.7658 96.842 38.0395C97.3104 37.8798 97.6466 37.4614 97.8509 36.7841C97.9867 36.3279 98.0549 35.7651 98.0549 35.0956C98.0549 34.8906 97.9863 34.6736 97.849 34.4451C97.536 33.9203 97.3798 33.6276 97.3798 33.5665C97.3798 33.4525 97.4141 33.3441 97.4828 33.2412C97.5515 33.1386 97.643 33.0417 97.7574 32.9504C98.0625 33.0951 98.2761 33.3498 98.3982 33.7147C98.4897 33.9889 98.5355 34.3348 98.5355 34.753Z" fill="black"/>
<path d="M104.428 34.5841C104.375 34.5308 104.321 34.4776 104.268 34.4246C104.215 34.3712 104.138 34.3446 104.039 34.3446C103.36 34.3446 102.668 34.7684 101.962 35.6161C101.257 36.4641 100.904 37.2296 100.904 37.914L100.938 38.2448C101.51 38.1155 102.029 37.8532 102.494 37.4579C102.891 37.1234 103.261 36.6824 103.604 36.135C103.848 35.7549 104.123 35.2379 104.428 34.5841ZM105.572 38.3702C105.527 38.4842 105.447 38.5795 105.332 38.6551C105.218 38.7313 105.096 38.7693 104.966 38.7693C104.646 38.7693 104.375 38.4237 104.154 37.7318C104.07 37.4652 103.99 37.1956 103.913 36.9219C103.272 37.4617 102.769 37.876 102.403 38.1649C101.717 38.7047 101.148 38.9746 100.698 38.9746C100.492 38.9746 100.343 38.9081 100.252 38.7748C100.16 38.6422 100.114 38.4652 100.114 38.2448C100.114 37.652 100.378 36.9409 100.904 36.1122C101.4 35.337 101.918 34.7665 102.46 34.4016C102.742 34.2115 103.065 34.0652 103.427 33.9623C103.789 33.8599 104.154 33.8086 104.52 33.8086C104.764 33.8086 104.939 33.9077 105.046 34.1051C105.13 34.2572 105.172 34.4662 105.172 34.7323C105.172 34.968 105.122 35.2531 105.023 35.5876C104.802 36.3253 104.691 36.7964 104.691 37.0017C104.691 37.3664 104.806 37.6327 105.035 37.8C105.332 38.0129 105.511 38.2032 105.572 38.3702Z" fill="black"/>
<path d="M111.889 34.2647C111.889 34.3711 111.841 34.4757 111.745 34.5783C111.65 34.6809 111.541 34.7323 111.419 34.7323C111.343 34.7323 111.179 34.5688 110.927 34.2419C110.676 33.915 110.435 33.7517 110.207 33.7517C109.71 33.7517 109.22 34.0292 108.736 34.5845C108.252 35.1397 108.009 35.6686 108.009 36.1706C108.009 36.3155 108.036 36.6006 108.089 37.0264C108.12 37.2699 108.135 37.4369 108.135 37.5284C108.135 37.8859 108.101 38.1292 108.032 38.2587C107.941 38.4184 107.735 38.5478 107.414 38.6467C107.414 38.3043 107.393 37.7358 107.351 36.9408C107.309 36.1461 107.289 35.6306 107.289 35.3949C107.289 34.7558 107.433 34.1813 107.724 33.6717H107.826C107.842 33.6871 107.948 33.7855 108.147 33.9682C108.231 34.0442 108.295 34.1126 108.341 34.1735L108.547 33.9682L108.696 33.9568L108.559 33.9796C108.917 33.7743 109.222 33.6147 109.474 33.5006C109.894 33.3108 110.214 33.2155 110.435 33.2155C110.733 33.2155 111.038 33.3146 111.351 33.512C111.709 33.7401 111.889 33.991 111.889 34.2647Z" fill="black"/>
<path d="M115.527 34.2761L115.333 34.47C115.241 34.4776 115.146 34.5099 115.046 34.5669C114.947 34.6242 114.871 34.6639 114.818 34.6867C114.573 34.7931 114.344 34.9642 114.131 35.1999C114.04 35.2987 113.753 35.7016 113.273 36.4087L113.456 36.4201C113.914 36.4201 114.373 36.1787 114.835 35.6959C115.296 35.2132 115.527 34.7401 115.527 34.2761ZM117.896 37.1271L117.781 37.2295C117.781 37.6631 117.247 38.0435 116.18 38.3702C115.317 38.6363 114.593 38.7693 114.005 38.7693C113.525 38.7693 113.172 38.6363 112.947 38.3702C112.722 38.1041 112.609 37.7239 112.609 37.2295C112.609 36.4695 112.953 35.6788 113.639 34.8577C114.364 33.991 115.096 33.5577 115.836 33.5577C115.981 33.5577 116.086 33.6052 116.151 33.7002C116.216 33.7953 116.248 33.9224 116.248 34.082C116.248 34.6449 115.992 35.1773 115.481 35.6788C115.336 35.8233 114.859 36.1882 114.051 36.7734C113.532 37.154 113.273 37.4617 113.273 37.6973C113.273 37.895 113.379 38.0509 113.593 38.1649C113.807 38.2787 114.024 38.3357 114.246 38.3357C114.535 38.3357 115.018 38.2333 115.693 38.0283C116.368 37.8225 116.79 37.6289 116.957 37.4462C117.056 37.3094 117.133 37.2032 117.186 37.1271C117.285 36.9901 117.373 36.9067 117.449 36.8763L117.896 37.0131V37.1271Z" fill="black"/>
<path d="M113.412 16.0019H113.047V16.4139H113.417C113.527 16.4139 113.637 16.3504 113.637 16.2079C113.637 16.0273 113.496 16.0019 113.412 16.0019ZM113.726 16.9302H113.616L113.382 16.5054H113.047V16.9302H112.953V15.9104H113.412C113.611 15.9104 113.731 16.0223 113.731 16.2079C113.731 16.363 113.632 16.4749 113.481 16.5004L113.726 16.9302ZM113.295 15.5876C112.838 15.5876 112.468 15.9589 112.468 16.4191C112.468 16.8767 112.838 17.2478 113.295 17.2478C113.752 17.2478 114.124 16.8767 114.124 16.4191C114.124 15.9589 113.752 15.5876 113.295 15.5876ZM113.295 17.3395C112.787 17.3395 112.374 16.9249 112.374 16.4191C112.374 15.9104 112.787 15.4985 113.295 15.4985C113.803 15.4985 114.218 15.9104 114.218 16.4191C114.218 16.9249 113.803 17.3395 113.295 17.3395Z" fill="black"/>
</svg>
