<svg width="118" height="55" viewBox="0 0 118 55" fill="none" xmlns="http://www.w3.org/2000/svg">
<g clip-path="url(#clip0)">
<path d="M50.1443 17.6737H50.1243L48.5197 26.0578H46.3133L44.2273 15.8284H45.9924L47.4365 23.7111H47.4566L49.001 15.8284H51.2876L52.812 23.7111H52.8321L54.3364 15.8284H56.0413L53.9353 26.0578H51.6888L50.1443 17.6737Z" fill="#009CDE"/>
<path d="M58.6891 18.3757C60.2335 18.3757 61.9986 19.178 61.9986 22.2468C61.9986 25.416 60.2335 26.138 58.6891 26.138C57.1446 26.138 55.3595 25.3959 55.3595 22.2468C55.3796 19.178 57.1647 18.3757 58.6891 18.3757ZM58.6891 24.8744C59.8524 24.8744 60.1332 23.5305 60.1332 22.2669C60.1332 21.0032 59.8725 19.6794 58.6891 19.6794C57.5057 19.6794 57.2449 21.0032 57.2449 22.2669C57.2449 23.5305 57.5257 24.8744 58.6891 24.8744Z" fill="#009CDE"/>
<path d="M62.9012 19.7397C62.9012 19.3185 62.8812 18.9174 62.8411 18.4962H64.4858C64.5059 18.9575 64.546 19.4188 64.546 19.8802H64.566C64.7867 19.2985 65.3483 18.3959 66.4916 18.3959C66.5919 18.3959 66.6922 18.4159 66.7925 18.436V20.1409C66.632 20.1008 66.4515 20.0607 66.291 20.0607C65.5489 20.0607 64.7265 20.522 64.7265 21.926V26.058H62.9213L62.9012 19.7397Z" fill="#009CDE"/>
<path d="M67.5748 15.0661H69.4001V26.0377H67.5748V15.0661Z" fill="#009CDE"/>
<path d="M76.8013 15.0661V24.754C76.8013 25.1752 76.8213 25.6165 76.8614 26.0377H75.1565C75.1164 25.6566 75.0964 25.2555 75.0964 24.8744H75.0562C74.7554 25.5162 74.2138 26.1581 73.0505 26.1581C71.1851 26.1581 70.4028 24.3729 70.4028 22.2869C70.4028 19.8198 71.3857 18.3957 73.0103 18.3957C73.8528 18.3556 74.615 18.837 74.956 19.5992H74.976V15.0661H76.8013ZM73.5318 24.8142C74.5949 24.8142 74.956 23.6508 74.956 22.2468C74.956 20.7826 74.5548 19.7195 73.5519 19.7195C72.549 19.7195 72.188 20.7023 72.188 22.2067C72.208 23.9517 72.4888 24.8142 73.5318 24.8142Z" fill="#009CDE"/>
<path d="M82.1969 15.8284H84.0823V19.9803H87.1111V15.8284H88.9764V26.0578H87.1111V21.5248H84.0823V26.0378H82.1969V15.8284Z" fill="#009CDE"/>
<path d="M95.6156 25.6769C94.9135 25.9978 94.1313 26.1582 93.3691 26.1582C90.9421 26.1582 89.879 24.4132 89.879 22.3874C89.879 20.1409 91.0624 18.3959 92.988 18.3959C94.6127 18.3959 95.9967 19.3386 95.9967 22.4275V22.7885H91.6441C91.6441 24.0722 92.1656 24.8545 93.5697 24.8545C94.6728 24.8545 95.2144 24.5135 95.5554 24.2728L95.6156 25.6769ZM94.2316 21.6252C94.2316 20.3014 93.7903 19.6194 92.9679 19.6194C92.0052 19.6194 91.6241 20.6223 91.6241 21.6252H94.2316Z" fill="#009CDE"/>
<path d="M97.1599 18.9373C97.902 18.5762 98.7244 18.3757 99.5467 18.3757C101.894 18.3757 102.435 19.519 102.435 21.4044V24.6939C102.435 25.1352 102.475 25.5764 102.535 26.0177H100.891C100.81 25.6767 100.77 25.3357 100.79 24.9947H100.77C100.309 25.6165 99.7473 26.138 98.6642 26.138C97.5008 26.138 96.4177 25.3357 96.4177 23.9317C96.4177 21.8858 98.0825 21.3643 100.389 21.3643H100.75V21.0835C100.75 20.3413 100.389 19.6393 99.3462 19.6393C98.604 19.6594 97.8819 19.9201 97.2802 20.3815L97.1599 18.9373ZM100.73 22.3471H100.57C99.0252 22.3471 98.1026 22.668 98.1026 23.7712C98.0625 24.373 98.5238 24.8945 99.1255 24.9346H99.2659C100.349 24.9346 100.75 24.1323 100.75 22.7884V22.3471H100.73Z" fill="#009CDE"/>
<path d="M104.1 15.0661H105.905V26.0377H104.1V15.0661Z" fill="#009CDE"/>
<path d="M107.991 16.9517L109.796 16.3901V18.4961H111.301V19.82H109.796V23.7513C109.796 24.5536 110.097 24.7943 110.619 24.7943C110.859 24.7943 111.1 24.7341 111.301 24.6338V25.9175C110.92 26.078 110.498 26.1582 110.077 26.1582C108.733 26.1582 107.971 25.5364 107.971 23.9519V19.84H106.768V18.5162H107.971V16.9517H107.991Z" fill="#009CDE"/>
<path d="M111.882 15.0661H113.688V19.4788H113.728C114.049 19.0175 114.47 18.3957 115.593 18.3957C117.298 18.3957 117.82 19.6593 117.82 21.1837V26.0377H116.014V21.5247C116.014 20.3614 115.713 19.88 114.971 19.88C114.029 19.88 113.688 20.6823 113.688 21.6451V26.0377H111.882V15.0661Z" fill="#009CDE"/>
<path d="M48.3795 28.7657C50.5056 28.7657 52.4512 30.3503 52.4512 34.0208C52.4512 37.6914 50.5056 39.276 48.3795 39.276C46.2533 39.276 44.3077 37.6914 44.3077 34.0208C44.3077 30.3503 46.2533 28.7657 48.3795 28.7657ZM48.3795 37.8519C49.5629 37.8519 50.5257 36.849 50.5257 34.0208C50.5257 31.1927 49.5629 30.2098 48.3795 30.2098C47.1961 30.2098 46.2333 31.2127 46.2333 34.0208C46.2333 36.8289 47.1961 37.8519 48.3795 37.8519Z" fill="#009CDE"/>
<path d="M53.2132 32.8373C53.2132 32.4161 53.1932 32.0149 53.1531 31.5937H54.7978C54.8179 32.055 54.858 32.5164 54.858 32.9777H54.878C55.0987 32.396 55.6804 31.4934 56.8036 31.4934C56.9039 31.4934 57.0042 31.5135 57.1045 31.5335V33.2384C56.944 33.1983 56.7635 33.1582 56.583 33.1582C55.8408 33.1582 55.0184 33.6195 55.0184 35.0236V39.1555H53.2132V32.8373Z" fill="#009CDE"/>
<path d="M57.987 40.3188C58.669 40.72 59.4312 40.9406 60.2134 40.9607C61.9183 40.9607 62.1991 39.7773 62.1991 38.5939V37.8718H62.1791C61.8782 38.4535 61.3768 39.1555 60.1934 39.1555C59.1504 39.1555 57.5658 38.4535 57.5658 35.4047C57.5658 33.3187 58.3079 31.4934 60.2937 31.4934C61.3968 31.4934 61.8983 32.1152 62.2794 32.7771H62.3395C62.3395 32.376 62.3797 31.9949 62.3997 31.6138H64.0445C64.0244 32.0149 63.9843 32.396 63.9843 32.7972V38.3532C63.9843 40.72 63.2622 42.3848 60.4942 42.3848C59.6117 42.3848 58.7292 42.2243 57.9068 41.9235L57.987 40.3188ZM60.6146 37.8116C61.7579 37.8116 62.2192 36.9892 62.2192 35.2843C62.2192 33.6998 61.6175 32.8573 60.755 32.8774C59.7922 32.8975 59.4312 33.78 59.4312 35.3044C59.4312 37.0695 59.9928 37.8116 60.6146 37.8116Z" fill="#009CDE"/>
<path d="M65.5891 32.0351C66.3312 31.654 67.1536 31.4734 67.9759 31.4734C70.3227 31.4734 70.8643 32.6167 70.8643 34.5022V37.7917C70.8643 38.2329 70.9044 38.6742 70.9646 39.1155H69.3198C69.2396 38.7745 69.1995 38.4335 69.2195 38.0925H69.1995C68.7381 38.7143 68.1765 39.2358 67.0934 39.2358C65.93 39.2358 64.8469 38.4335 64.8469 37.0295C64.8469 34.9836 66.5117 34.4621 68.8184 34.4621H69.1794V34.1813C69.1794 33.4391 68.8184 32.7371 67.7754 32.7371C67.0332 32.7571 66.3111 33.0179 65.7094 33.4792L65.5891 32.0351ZM69.1594 35.4449H68.9989C67.4544 35.4449 66.5318 35.7658 66.5318 36.869C66.4917 37.4707 66.953 37.9922 67.5547 38.0323H67.6951C68.7783 38.0323 69.1794 37.23 69.1794 35.8862L69.1594 35.4449Z" fill="#009CDE"/>
<path d="M72.3285 32.8373C72.3285 32.4161 72.3084 32.0149 72.2683 31.5937H73.9732C73.9933 31.9748 74.0334 32.376 74.0334 32.7571H74.0535C74.3142 32.2957 74.8357 31.4934 76.0592 31.4934C77.7641 31.4934 78.2856 32.7571 78.2856 34.2814V39.1354H76.4604V34.6024C76.4604 33.439 76.1595 32.9576 75.4174 32.9576C74.4747 32.9576 74.1337 33.7599 74.1337 34.7227V39.1154H72.3285V32.8373Z" fill="#009CDE"/>
<path d="M79.6694 28.3845H81.5549V30.1696H79.6694V28.3845ZM79.7095 31.5937H81.5148V39.1354H79.7095V31.5937Z" fill="#009CDE"/>
<path d="M82.9391 37.571L86.1684 32.9777H83.0394V31.5938H87.9736V33.1382L84.8045 37.7515H88.0739V39.1355H82.9191V37.571H82.9391Z" fill="#009CDE"/>
<path d="M89.4578 32.0351C90.2 31.654 91.0223 31.4734 91.8447 31.4734C94.1915 31.4734 94.733 32.6167 94.733 34.5022V37.7917C94.733 38.2329 94.7732 38.6742 94.8333 39.1155H93.1886C93.1084 38.7745 93.0682 38.4335 93.0883 38.0925H93.0682C92.6069 38.7143 92.0453 39.2358 90.9622 39.2358C89.7988 39.2358 88.7157 38.4335 88.7157 37.0295C88.7157 34.9836 90.3805 34.4621 92.6871 34.4621H93.0482V34.1813C93.0482 33.4391 92.6871 32.7371 91.6441 32.7371C90.902 32.7571 90.1799 33.0179 89.5782 33.4792L89.4578 32.0351ZM93.0281 35.4449H92.8677C91.3232 35.4449 90.4006 35.7658 90.4006 36.869C90.3604 37.4707 90.8218 37.9922 91.4235 38.0323H91.5639C92.647 38.0323 93.0482 37.23 93.0482 35.8862V35.4449H93.0281Z" fill="#009CDE"/>
<path d="M96.6986 30.0493L98.5038 29.4877V31.5937H100.008V32.9176H98.5038V36.8288C98.5038 37.6311 98.8047 37.8718 99.3262 37.8718C99.5669 37.8718 99.8076 37.8317 100.008 37.7114V38.9951C99.6271 39.1756 99.2058 39.2558 98.7846 39.2358C97.4408 39.2358 96.6786 38.614 96.6786 37.0495V32.9176H95.4751V31.5937H96.6786L96.6986 30.0493Z" fill="#009CDE"/>
<path d="M101.111 28.3845H102.977V30.1696H101.111V28.3845ZM101.151 31.5937H102.977V39.1354H101.171L101.151 31.5937Z" fill="#009CDE"/>
<path d="M107.289 31.4734C108.834 31.4734 110.599 32.2758 110.599 35.3446C110.599 38.5137 108.834 39.2358 107.289 39.2358C105.745 39.2358 103.96 38.5137 103.96 35.3446C103.98 32.2958 105.765 31.4734 107.289 31.4734ZM107.289 37.9722C108.453 37.9722 108.733 36.6283 108.733 35.3647C108.733 34.101 108.473 32.7772 107.289 32.7772C106.106 32.7772 105.845 34.101 105.845 35.3647C105.845 36.6283 106.126 37.9722 107.289 37.9722Z" fill="#009CDE"/>
<path d="M112.043 32.8373C112.043 32.4161 112.023 32.0149 111.983 31.5937H113.688C113.708 31.9748 113.748 32.376 113.748 32.7571H113.768C114.029 32.2957 114.55 31.4934 115.774 31.4934C117.479 31.4934 118 32.7571 118 34.2814V39.1354H116.195V34.6024C116.195 33.439 115.894 32.9576 115.152 32.9576C114.209 32.9576 113.868 33.7599 113.868 34.7227V39.1154H112.063L112.043 32.8373Z" fill="#009CDE"/>
<path d="M33.2759 15.7281C34.0581 16.6708 35.4221 17.2124 36.2244 18.1551C35.6427 15.3871 33.5166 13.1206 30.9893 12.579C32.2329 13.5017 32.4936 14.7854 33.2759 15.7281ZM2.9485 22.7483C4.69352 18.9574 7.28098 19.7597 8.38416 16.1694C7.74231 17.2525 4.91416 17.7138 3.6104 20.542C4.29237 18.8571 3.95139 16.2897 5.07462 14.8857C1.68485 17.4129 3.12902 21.4646 2.9485 22.7483ZM6.07751 31.8144C6.39844 33.2787 5.47578 35.4248 6.94 37.4507C5.43566 35.7658 2.22642 35.3245 0.922659 32.7572C2.54734 39.0352 6.79959 37.7515 8.70508 39.1155C7.14057 36.8489 8.42427 35.3446 6.07751 31.8144ZM5.59612 35.7658C4.65341 32.2557 6.31821 31.0322 5.05456 27.6625C4.93422 29.568 3.65052 30.4906 4.513 33.9606C3.00867 31.0121 0.681965 29.9089 0 27.9032C0.0401156 33.4191 4.47289 34.2414 5.59612 35.7658ZM12.3957 41.6427C11.092 39.8375 11.9745 38.8146 8.32399 35.5452C9.10624 36.7487 8.30393 38.253 10.771 40.5797C8.3641 39.1556 5.01445 39.7573 3.40983 37.8518C6.1778 43.1471 11.0318 40.9808 12.3957 41.6427ZM30.1469 40.5797C32.614 38.2329 31.8117 36.7286 32.5939 35.5452C28.9233 38.8146 29.8259 39.8375 28.5021 41.6427C29.8861 40.9808 34.7401 43.1471 37.488 37.8518C35.9035 39.7774 32.5538 39.1556 30.1469 40.5797ZM33.9779 37.4507C35.4421 35.4248 34.5195 33.2987 34.8203 31.8144C32.4736 35.3446 33.7573 36.8489 32.1928 39.1155C34.1183 37.7515 38.3505 39.0352 39.9752 32.7572C38.6714 35.3245 35.4822 35.7658 33.9779 37.4507ZM28.121 41.9035C26.8173 41.5625 25.4734 41.3419 24.1095 41.3018C22.8659 41.2817 21.6223 41.4823 20.459 41.9236C19.2956 41.4823 18.052 41.2817 16.8084 41.3018C15.4445 41.3419 14.1006 41.5625 12.7969 41.9035C10.5905 42.4852 8.68503 42.9465 7.02023 42.1041C8.60479 43.5081 10.4702 44.0296 13.1579 43.7288C15.3843 43.4881 17.1895 42.3648 19.2956 42.3849H19.3758C18.052 43.0468 16.8686 43.9695 15.9058 45.0927L16.9288 45.2331C16.9288 45.2331 17.9918 43.0869 20.459 42.5253C22.9261 43.0869 23.9891 45.2331 23.9891 45.2331L25.0121 45.0927C24.0493 43.9695 22.8659 43.0468 21.5421 42.3849H21.6223C23.7284 42.3648 25.5336 43.4881 27.76 43.7288C30.4477 44.0096 32.293 43.5081 33.8977 42.1041C32.2329 42.9465 30.3274 42.4852 28.121 41.9035ZM5.21503 23.8515C4.31243 25.5965 2.88832 25.9977 3.04878 29.588C2.28659 26.3988 0.461329 25.1954 0.481387 23.1695C-0.782254 28.5049 2.58746 29.1267 3.47 31.3732C3.32959 28.1639 5.37549 27.5221 5.21503 23.8515ZM6.47867 19.7396C6.15774 20.1809 5.93711 20.3815 5.09468 21.0635C3.83104 22.0663 2.9485 23.4905 2.64763 25.075C2.72786 23.1094 1.52439 20.3013 2.3267 18.2554C-0.782254 22.648 2.50722 25.2756 2.62757 26.8802C3.40983 23.8114 5.2752 23.7913 6.47867 19.7396ZM38.2703 25.075C37.9493 23.4905 37.0869 22.0663 35.8232 21.0635C34.9808 20.3614 34.7602 20.1809 34.4392 19.7396C35.6427 23.7913 37.5081 23.8114 38.3104 26.8802C38.4307 25.2957 41.7202 22.6681 38.6113 18.2554C39.4136 20.3013 38.2101 23.1094 38.2703 25.075ZM40.9179 27.9032C40.2359 29.929 37.9092 31.0121 36.4049 33.9606C37.2674 30.4906 35.9837 29.568 35.8633 27.6625C34.5997 31.0322 36.2645 32.2557 35.3218 35.7658C36.445 34.2414 40.8778 33.4191 40.9179 27.9032ZM35.7029 23.8515C35.5224 27.5221 37.5883 28.1639 37.4479 31.3732C38.3104 29.1467 41.7002 28.5049 40.4365 23.1695C40.4566 25.2154 38.6313 26.3988 37.8691 29.6081C38.0296 25.9776 36.6255 25.5965 35.7029 23.8515ZM7.64202 15.7281C8.42427 14.7854 8.68503 13.5017 9.92861 12.579C7.38127 13.1206 5.25514 15.367 4.67347 18.135C5.47578 17.1923 6.85977 16.6507 7.64202 15.7281ZM32.5538 16.1292C33.657 19.7396 36.2444 18.9373 37.9895 22.7082C37.8089 21.4446 39.2531 17.3728 35.8633 14.8857C37.0066 16.2696 36.6656 18.8571 37.3276 20.542C36.0037 17.7138 33.1756 17.2525 32.5538 16.1292ZM23.7284 18.1952C23.0665 17.9144 22.3644 17.7339 21.6624 17.6336V18.0949C22.3243 18.1952 22.9662 18.3757 23.5679 18.6164C23.6481 18.476 23.7083 18.3356 23.7284 18.1952ZM23.2069 13.7223L23.3473 13.602L23.0865 13.4816L22.3845 13.4616L22.204 13.5819L21.8028 13.5418V13.6421C22.0636 13.6621 22.3243 13.6822 22.5249 13.7223L22.8659 13.7022L23.2069 13.7223ZM21.8831 28.6854C21.8831 28.5651 21.7226 28.4447 21.502 28.3444H21.4618C21.4618 28.4447 21.4418 28.9061 21.4418 29.1467C21.7025 29.0063 21.8831 28.886 21.8831 28.6854ZM13.8399 19.88C13.8599 19.7998 13.88 19.6995 13.9001 19.6193C13.7998 19.6394 13.7195 19.6594 13.6192 19.6394L13.8399 19.88ZM10.6106 16.6507L12.2553 18.2955C10.2696 20.3614 9.14635 23.1294 9.10624 25.9977H6.77953C6.81965 22.4876 8.18358 19.158 10.6106 16.6507ZM9.60768 29.4476L9.46728 29.4276L9.32687 29.2872L8.66497 29.227L8.86555 29.5078L8.26381 29.3874L8.42427 29.247L8.28387 29.1066L7.8426 29.2872L7.68214 29.568L7.74231 30.2299L8.24375 31.4333L8.48445 31.8144L8.62485 31.8545L8.24375 31.1325L8.16352 30.7714L8.24375 30.6912L8.18358 30.4906L8.40422 30.5307L8.76526 31.0522L8.84549 31.0924V30.7113L8.98589 30.7915L9.02601 30.9921L9.38705 31.0924L9.54751 30.972L9.60768 31.0121V31.2929L9.76815 31.4935L9.96872 31.5336L10.41 32.2557L10.6707 32.3359L10.751 31.995C11.2123 32.7371 11.7338 33.4391 12.3556 34.0609L10.7109 35.7056C8.26381 33.2385 6.85977 29.929 6.77953 26.459H9.10624C9.1263 27.4619 9.30682 28.4848 9.60768 29.4476ZM11.8943 26.4389C11.8943 26.6596 11.9143 26.8802 11.9544 27.1209L11.6736 27.1811L11.6135 27.4619L11.0117 28.2241L11.0318 29.2671L10.4301 29.4677H10.0891C9.76815 28.4848 9.60768 27.482 9.56757 26.4389H11.8943ZM12.4158 32.9978L12.9373 33.2987L13.0376 33.3789L12.6565 33.76C12.4759 33.5795 12.3155 33.399 12.155 33.1984L12.4158 32.9978ZM14.5419 20.5821L16.1866 22.2268C15.8457 22.6079 15.5448 23.0291 15.3242 23.4904H15.2038L14.9631 23.5506H14.8829L14.6422 23.7713L14.9631 23.7311L15.2439 23.671L15.1838 23.7512L14.9431 23.9117H14.8227L14.4617 24.1925L14.1207 24.1524L13.6192 25.0951L13.7195 25.2756L13.4387 25.5965L13.3986 25.9977H12.3556C12.3757 23.9718 13.1579 22.0463 14.5419 20.5821ZM16.2268 27.3817L16.3471 27.3215L16.648 27.5421L16.5076 27.6424L16.8485 27.863L16.8285 27.6224L17.009 27.3215L17.2096 27.5221L17.4102 27.8029L17.0491 27.9032L17.2096 28.2241L17.4503 28.0837L17.4102 27.9834L17.5907 27.863L17.691 27.3616C17.8314 27.6625 18.0119 27.9433 18.2325 28.184L16.5878 29.8287C15.7855 28.9863 15.284 27.9032 15.1436 26.7398L15.4846 27.1009H15.8055L16.2268 27.3817ZM13.8599 25.6366L13.9001 25.1753L14.1809 25.0148L14.6823 25.0951L14.7625 25.1753C14.7224 25.4361 14.7024 25.7169 14.6823 25.9776H14.1207L13.8599 25.6366ZM13.0977 27.2413L12.8771 27.5822H12.496L12.4759 27.5622C12.4158 27.2011 12.3757 26.82 12.3556 26.459H13.0576L12.8972 27.0206L13.0977 27.2413ZM14.6422 31.7743C14.4817 31.5938 14.3012 31.4133 14.1608 31.2328L14.241 30.6511L14.0003 30.0895L13.9402 29.2069L13.6594 28.6654L13.7195 28.3244L13.3785 27.6825L13.0977 27.5421L13.2181 27.2011L13.0977 26.9404L13.2181 26.6395H13.539L13.6594 26.459H14.2009L14.2811 26.6195L14.1608 27.161L14.1006 27.2613L14.3012 27.7026L14.1608 27.7828L14.0605 27.6625L14.0204 27.7026L14.1207 27.9633L14.2811 28.2642H14.3614L14.4015 27.9834L14.3213 27.8831V27.7026L14.3012 27.3215L14.4216 26.6395L14.3012 26.459H14.6823C14.7625 27.843 15.3242 29.1467 16.2869 30.1496L14.6422 31.7743ZM28.6425 34.0208C30.6283 31.9749 31.7715 29.2671 31.8317 26.4389H34.1584C34.0782 29.8889 32.6942 33.1984 30.2672 35.6655L28.6425 34.0208ZM28.0007 33.3789L28.1812 33.1784L28.0007 32.2758L27.8803 32.2356L27.9606 32.0752L27.5795 31.9548L27.4992 32.2758L27.4591 32.6769L27.3789 32.7572L26.6769 32.0551C28.1411 30.5307 28.9835 28.545 29.0637 26.4389H31.3904C31.3102 29.1668 30.2271 31.7543 28.3216 33.6999L28.0007 33.3789ZM25.9548 35.5652L26.1754 35.1039L26.0952 34.9033L26.4161 34.6225V34.4621L26.1353 34.2815L26.3559 33.8202L26.6969 33.3789L26.3559 33.0179H26.0952L25.9347 32.7572C26.0751 32.6368 26.2155 32.5165 26.3359 32.3961L27.9806 34.0408C27.3789 34.6225 26.6969 35.144 25.9548 35.5652ZM25.6339 31.0322L25.4132 30.8115L25.5737 30.5909L25.7943 30.1496L25.7141 30.0293L25.8545 29.7084L25.8344 29.4075L25.7542 29.1066L25.5536 29.0465L25.4734 29.2069L25.3531 29.1668C25.5336 28.9061 25.694 28.6052 25.8344 28.3244L26.035 28.2441L26.1554 28.0837L26.2155 28.1439L26.3559 27.9834L26.2356 27.843L26.3359 27.8229L26.5164 27.9032H26.8774L27.0981 27.7828L27.6597 27.6224L27.5594 27.4418L27.5193 27.2212L27.8202 27.3616L27.9405 27.3014L27.8803 27.0607L27.4992 27.2011L27.0981 27.1209L26.7772 26.4791H28.5623C28.4821 28.4648 27.6798 30.3502 26.3158 31.7743L26.0751 31.5336L26.1754 31.2127L25.9949 30.4906L25.6339 31.0322ZM24.7914 22.287L26.4362 20.6422C26.8173 21.0635 27.1583 21.5248 27.4591 22.0062L27.2585 22.0663L27.2786 22.4274L27.8803 22.8085C28.0408 23.1495 28.1611 23.4905 28.2614 23.8515L28.1611 24.012L27.9405 24.1724L27.8803 24.5134L27.7199 24.5936L27.5995 24.7541L27.4792 24.6939H27.2585L27.3789 24.5134L27.4792 24.0521L27.6396 23.9518L27.1984 23.5306L26.8774 23.6509L26.7972 23.9718L26.5966 24.1925L26.376 24.012L26.2958 23.8114L26.4161 23.7311L26.4763 23.8515L26.5766 23.8114L26.5365 23.6108H26.3961V23.691L26.2958 23.7111L25.7943 23.1094L25.6138 22.9689L25.674 22.9088L25.8344 22.8486L25.674 22.7884C25.674 22.7884 25.4935 22.8285 25.4734 22.8285L25.5737 22.9689H25.3129C25.1525 22.7082 24.992 22.4876 24.7914 22.287ZM25.0522 31.2528L24.5507 31.1124L24.3903 31.1726L24.1095 30.9519L23.8487 30.8517C23.9891 30.7514 24.1095 30.6511 24.2298 30.5508L24.651 30.8517L24.972 31.0121L25.1324 31.1726L25.0522 31.2528ZM24.1696 23.5306L24.3702 23.4904V23.4503L24.1696 23.3099L24.2298 22.8687L24.4705 22.6079C24.631 22.7884 24.7714 22.9689 24.9118 23.1695L24.8316 23.4303L24.6109 23.2698L24.4304 23.3099L24.5106 23.4704H24.5909L24.4906 23.7111L24.4304 23.6108L24.1696 23.5306ZM26.9577 25.1352L27.3789 24.9146L27.8001 24.8544L27.9004 24.6538L28.1411 24.5134L28.2414 24.3128L28.3216 23.9718C28.3617 24.0922 28.3818 24.2125 28.4219 24.3329L28.2013 24.9948V25.2154L28.4821 24.7541C28.5422 25.1552 28.5824 25.5765 28.6024 25.9776H26.5565L26.5164 25.7971L26.7571 25.6166L26.7972 25.4962L26.8975 25.416L27.1783 25.3759L27.1984 25.2555L26.9577 25.1352ZM27.419 19.6795L27.9806 19.6995L28.121 19.86L28.0609 20.1007L28.8431 20.5821L29.0036 20.562L29.9864 21.7053L30.3876 21.5649C31.0294 22.9489 31.3704 24.4733 31.3904 25.9977H29.0637C29.0637 25.3959 28.9835 24.8143 28.8431 24.2326L28.9434 24.0922L29.0838 23.35L28.9835 22.5678L28.7027 21.6652L28.0609 20.7225L28.2213 20.8027L28.3015 20.7225L27.78 20.3614L27.7399 20.4818L28.2614 21.2239L28.5623 21.8257L28.7629 22.4274L28.823 22.8285L28.9233 23.5105L28.7228 23.5306C28.7228 23.5306 28.5021 23.1094 28.4219 22.9288L28.5222 22.7684L28.3216 22.4876V22.2268L28.1812 22.0463L28.0007 22.0663C27.9405 21.946 27.8803 21.8257 27.8001 21.7254L27.9205 21.7855L27.9606 21.7454L27.9004 21.605L28.0609 21.5248L28.0007 21.4446L27.78 21.5248L27.8603 21.1637L27.7199 21.0835L27.5995 21.3643C27.3388 20.9832 27.058 20.6222 26.7571 20.2812L27.419 19.6795ZM30.3876 16.6909C32.7945 19.1981 34.1384 22.5277 34.1785 25.9977H31.8518C31.8317 24.2727 31.4306 22.5678 30.6483 21.0233L30.6684 20.9832L30.8288 21.0635L30.8689 20.9431L30.4477 20.221L29.9463 19.5391L29.3646 19.0577C29.164 18.817 28.9635 18.5763 28.7428 18.3356L30.3876 16.6909ZM20.479 40.2788C28.3015 40.2788 34.6398 33.9205 34.6198 26.098C34.6198 18.837 29.1239 12.7595 21.9031 12.0174L21.8831 12.0976C21.863 12.238 21.8229 12.3584 21.8028 12.4787C24.9118 12.7796 27.8202 14.1435 30.0466 16.3298L28.4821 17.8943L28.5422 17.6135L28.3417 17.5132L28.0809 17.5333L28.1411 17.3528L27.9606 16.7109L27.5795 16.2897L26.3559 15.6479L26.2557 15.7682L26.035 15.8284C26.4562 16.4301 26.6769 17.1522 26.6769 17.8743V18.1551L27.2786 18.9173L26.9978 18.9774L27.1783 19.2583L26.6368 19.7998L26.4161 19.3987C26.3158 19.6795 26.1754 19.9603 26.015 20.201L26.1353 20.3013L24.4705 21.946C24.3702 21.8457 24.2699 21.7655 24.1696 21.6652C24.0092 21.7454 23.8487 21.8056 23.6883 21.8658L23.8287 21.9661L23.7484 22.0463L23.5479 22.1466L23.4676 22.3472L23.3473 22.2268L23.0063 22.3472L23.1066 22.5076L23.3473 22.4474L23.5077 22.4675L23.5278 22.3873L23.6481 22.3271L23.6883 22.2669L23.9089 22.2068H24.0694L24.1696 22.287L23.5278 22.9489L23.4877 22.8887L22.8057 23.0091L22.6453 23.1695L22.5048 23.1896L22.9261 22.7884L22.7656 22.7082L22.3644 23.2297L22.4848 23.2096V23.4102L22.6252 23.4704L22.6453 23.671L22.4046 23.6309L22.1639 23.671L21.5621 23.3701C21.5621 23.3701 21.522 24.9747 21.522 25.777C22.9261 26.2584 24.4304 26.9404 24.4304 28.7456C24.4505 29.5078 24.0493 30.2299 23.4074 30.6511L23.3673 30.6711L23.3272 30.7113C22.7656 31.0924 22.0235 31.2929 21.3816 31.4935L21.3616 32.7572C22.3845 33.2586 23.608 34.0007 23.4877 36.0867C23.4676 36.6082 23.267 36.7486 23.1066 36.7888C22.5048 36.9292 21.8831 37.0295 21.2813 37.0696V37.5309C23.9289 37.3504 26.4161 36.2472 28.3417 34.4219L29.9864 36.0667C24.7112 41.1614 16.3471 41.1614 11.0518 36.1068L12.6966 34.4621C14.6021 36.2472 17.0692 37.3303 19.6767 37.5309C19.6767 37.3905 19.6767 37.23 19.6767 37.0696C17.1895 36.869 14.8628 35.846 13.0576 34.1211L13.4788 33.6798L14.0806 33.74L14.4015 33.399L15.2439 33.4391L15.3643 33.1382L15.3242 33.0179C16.5677 33.9606 18.052 34.5624 19.6165 34.7228C19.6165 34.5423 19.6165 34.3818 19.6165 34.2615C17.8916 34.0609 16.2869 33.3388 15.0032 32.1554L16.648 30.5107C17.0491 30.8717 17.4904 31.1726 17.9918 31.4133C18.032 31.2528 18.0721 31.1124 18.1523 30.972C17.7311 30.7514 17.3299 30.4906 16.989 30.1898L18.6337 28.545C18.8944 28.7456 19.1953 28.9261 19.4962 29.0264C19.4962 28.8659 19.4962 28.6854 19.4962 28.525C19.2956 28.4447 19.1151 28.3244 18.9546 28.204L19.4159 27.7427C19.2555 27.7026 19.095 27.6424 18.9346 27.5822L18.6136 27.9032C18.4532 27.7226 18.3128 27.5221 18.2125 27.3215C17.9317 27.2011 17.6509 27.0607 17.3901 26.8802C16.4273 26.2985 15.8457 25.2355 15.8657 24.0922C15.8457 23.33 16.0663 22.5678 16.5276 21.9661L14.8829 20.3213C16.0864 19.158 17.6308 18.4158 19.2755 18.1551C19.2755 17.9946 19.2755 17.8342 19.2755 17.6937C17.5105 17.9545 15.8457 18.7568 14.562 20.0004L14.2811 19.7196C14.221 19.8199 14.1407 19.9603 14.0605 20.1408L14.241 20.3213C12.7768 21.8658 11.9544 23.9117 11.9143 26.0378H9.56757C9.60768 23.2899 10.6707 20.6623 12.5762 18.6565L13.3184 19.3987H13.4187C13.5591 19.3786 13.7195 19.3385 13.8399 19.2783L12.8972 18.3356C13.3986 17.8542 13.9402 17.4129 14.5218 17.0318C14.562 16.9115 14.582 16.7911 14.6422 16.6909C14.7425 16.5304 14.8628 16.3699 15.0032 16.2095C14.1207 16.6909 13.3184 17.2926 12.5963 17.9946L10.9516 16.3499C13.1579 14.2037 16.0262 12.8598 19.1151 12.5389C19.1151 12.4787 19.095 12.4386 19.095 12.4386C19.075 12.3183 19.0549 12.218 19.0348 12.0776C11.2324 12.8799 5.59612 19.8399 6.41849 27.6224C7.18069 34.8231 13.2381 40.2989 20.479 40.2788ZM27.4391 15.7883L27.2987 15.5676L26.9978 15.4072L26.7571 15.5877L27.058 15.7481L27.3989 15.9888L27.4391 15.7883ZM26.035 22.3672L26.0551 22.5477L26.4562 22.4274L26.5766 22.1867L26.2958 21.8257L26.4362 21.605L26.8173 21.8658L26.8774 21.8056L26.7972 21.7454L26.717 21.585L26.8774 21.5047L26.717 21.3042L26.3559 21.4847L26.2356 21.7053L26.1554 21.9059L26.3158 22.1666L26.2557 22.287L26.035 22.3672ZM9.22659 32.7973L9.24664 32.697L9.04607 32.2356L8.80537 32.1354L9.22659 32.7973ZM18.7139 24.0521C18.7139 24.4532 18.9546 24.714 19.3758 24.9547C19.3758 24.9547 19.3758 24.8945 19.3758 24.7741L19.1151 24.4933L19.2555 24.2326L19.3758 24.1925C19.3558 23.7311 19.3558 23.2297 19.3558 23.1495H19.3357C18.9346 23.3902 18.734 23.671 18.7139 24.0521Z" fill="#009CDE"/>
<path d="M21.3215 34.1411C22.0436 34.5021 22.7256 35.0236 23.0064 35.9864C23.1267 34.3818 22.2241 33.6998 21.3416 33.2184L21.3215 34.1411Z" fill="#009CDE"/>
<path d="M26.1754 17.8742C26.1754 16.41 25.1123 14.8053 22.5249 14.2437C22.2641 14.2036 22.0034 14.1635 21.7426 14.1434C21.7426 14.3641 21.7226 14.8655 21.7226 14.8655C21.7226 15.026 21.7025 15.6077 21.7025 15.728C21.863 15.7481 22.0435 15.7681 22.204 15.7882C23.7083 16.1492 24.2499 17.0117 24.2499 17.8541C24.2499 19.2381 23.0664 19.7596 21.6223 20.1608L21.1409 20.2811C20.6996 20.3814 20.2383 20.5018 19.797 20.6221C19.6366 20.6622 19.4761 20.7023 19.3156 20.7625C17.711 21.2439 16.327 22.0261 16.327 24.0119C16.327 25.9976 17.9116 26.7197 19.456 27.2011C19.456 26.6394 19.436 26.0578 19.4159 25.4961C18.7139 25.1752 18.2526 24.754 18.2526 24.052C18.2526 23.35 18.6938 22.9488 19.3558 22.6479C19.4962 22.5878 19.6566 22.5276 19.8371 22.4674C20.2182 22.327 20.6595 22.2267 21.1008 22.1064L21.5822 21.986C23.7484 21.4645 26.1955 20.7826 26.1754 17.8742Z" fill="#009CDE"/>
<path d="M18.3729 31.7743C18.3729 32.5766 18.9546 32.9978 19.5363 33.3388C19.5363 33.1984 19.5162 31.9749 19.5162 31.9548C19.5363 31.7141 19.7569 31.5537 19.9575 31.4734C20.2584 31.333 20.5793 31.2127 20.9002 31.1124C21.0807 31.0522 21.2211 30.992 21.3816 30.9519C22.565 30.5909 23.9289 30.1496 23.9289 28.7055C23.9289 27.2613 22.7656 26.6796 21.4819 26.2383C21.4618 26.6997 21.4618 27.3616 21.4418 27.8229C21.9833 28.0235 22.3444 28.2842 22.3444 28.7055C22.3444 29.227 21.8028 29.5078 21.4017 29.6682C21.2412 29.7284 21.0005 29.8086 20.9203 29.8287C20.5993 29.929 20.2784 30.0293 19.9575 30.1496C19.797 30.2098 19.6366 30.27 19.4761 30.3502C18.9546 30.631 18.3729 31.0522 18.3729 31.7743Z" fill="#009CDE"/>
<path d="M19.1753 14.3641C18.6939 14.5245 18.2125 14.7051 17.7512 14.9458C17.2497 15.1062 16.5276 15.1463 15.7855 15.9486C15.5448 16.2294 15.3242 16.5303 15.1035 16.8312C14.8829 17.1521 14.8628 17.6736 14.7024 17.9344C14.4617 18.3355 14.5219 18.5762 14.5219 18.5762C14.4817 18.7567 14.3815 18.9373 14.2611 19.0777C14.0204 19.3585 13.6594 19.4989 13.2983 19.4387C13.6393 19.5992 14.1007 19.3785 14.1007 19.3785C14.0204 19.5992 13.9602 19.8198 13.9201 20.0404C14.3012 19.1779 14.6422 18.8771 14.7626 18.7768C14.923 18.8169 15.264 18.7968 15.8858 18.4358C16.5878 18.0347 17.6509 17.3727 17.9517 16.9515C18.2727 16.5303 18.6939 16.1893 19.1953 16.0088C19.1953 15.4071 19.1753 14.8455 19.1753 14.3641ZM16.2067 17.0318L15.8457 17.112L16.287 16.3899L16.7884 16.41L16.2067 17.0318Z" fill="#009CDE"/>
<path d="M20.6396 31.6741C20.5794 31.6941 20.3989 31.7744 20.2786 31.8145C20.1582 31.8546 20.0178 31.9148 20.0178 31.9549C20.0178 31.9549 20.1382 38.1327 20.1382 38.253C20.1382 39.5167 20.78 39.5367 20.78 38.253C20.78 38.1728 20.9204 31.5738 20.9204 31.5738C20.9204 31.5738 20.7399 31.634 20.6396 31.6741Z" fill="#009CDE"/>
<path d="M19.9575 29.6282C20.1581 29.568 20.3587 29.4878 20.5392 29.4477C20.6796 29.4076 20.7999 29.3674 20.9403 29.3273C20.9403 28.9462 21.0607 23.5707 21.0807 22.608C20.6595 22.7083 20.2383 22.8286 19.8372 22.969C19.8572 23.6911 19.9575 29.0465 19.9575 29.6282Z" fill="#009CDE"/>
<path d="M20.4991 9.10901C18.6939 9.10901 19.4561 11.7968 19.5965 12.6793C19.5965 12.7194 19.7369 18.7568 19.7771 20.1408C20.0579 20.0606 20.3186 20.0004 20.5994 19.9402L21.141 19.7998C21.161 18.4559 21.3014 12.6994 21.3014 12.6592C21.4218 11.7366 22.3645 9.10901 20.4991 9.10901" fill="#009CDE"/>
</g>
<defs>
<clipPath id="clip0">
<rect width="118" height="54.3421" fill="white"/>
</clipPath>
</defs>
</svg>
