<svg width="460" height="460" viewBox="0 0 460 460" fill="none" xmlns="http://www.w3.org/2000/svg">
<path d="M108.082 38V37C107.529 37 107.082 37.4477 107.082 38H108.082ZM201.292 38H202.292C202.292 37.4477 201.844 37 201.292 37V38ZM108.082 118.082V119.082C108.634 119.082 109.082 118.634 109.082 118.082H108.082ZM28 118.082V117.082C27.7348 117.082 27.4804 117.187 27.2929 117.375C27.1054 117.562 27 117.817 27 118.082H28ZM28 211.292H27C27 211.844 27.4477 212.292 28 212.292V211.292ZM108.082 211.292H109.082C109.082 210.739 108.634 210.292 108.082 210.292V211.292ZM108.082 291.373H107.082C107.082 291.926 107.529 292.373 108.082 292.373V291.373ZM201.292 291.373V292.373C201.844 292.373 202.292 291.926 202.292 291.373H201.292ZM201.292 211.292V210.292C200.739 210.292 200.292 210.739 200.292 211.292H201.292ZM281.373 211.292V212.292C281.926 212.292 282.373 211.844 282.373 211.292H281.373ZM281.373 118.082H282.373C282.373 117.529 281.926 117.082 281.373 117.082V118.082ZM201.292 118.082H200.292C200.292 118.634 200.739 119.082 201.292 119.082V118.082ZM107.082 44.6735C107.082 45.2258 107.529 45.6735 108.082 45.6735C108.634 45.6735 109.082 45.2258 109.082 44.6735H107.082ZM109.082 58.0204C109.082 57.4682 108.634 57.0204 108.082 57.0204C107.529 57.0204 107.082 57.4682 107.082 58.0204H109.082ZM107.082 71.3674C107.082 71.9197 107.529 72.3674 108.082 72.3674C108.634 72.3674 109.082 71.9197 109.082 71.3674H107.082ZM109.082 84.7144C109.082 84.1621 108.634 83.7144 108.082 83.7144C107.529 83.7144 107.082 84.1621 107.082 84.7144H109.082ZM107.082 98.0613C107.082 98.6136 107.529 99.0613 108.082 99.0613C108.634 99.0613 109.082 98.6136 109.082 98.0613H107.082ZM109.082 111.408C109.082 110.856 108.634 110.408 108.082 110.408C107.529 110.408 107.082 110.856 107.082 111.408H109.082ZM101.408 117.082C100.856 117.082 100.408 117.529 100.408 118.082C100.408 118.634 100.856 119.082 101.408 119.082V117.082ZM88.0613 119.082C88.6136 119.082 89.0613 118.634 89.0613 118.082C89.0613 117.529 88.6136 117.082 88.0613 117.082V119.082ZM74.7143 117.082C74.162 117.082 73.7143 117.529 73.7143 118.082C73.7143 118.634 74.162 119.082 74.7143 119.082V117.082ZM61.3674 119.082C61.9197 119.082 62.3674 118.634 62.3674 118.082C62.3674 117.529 61.9197 117.082 61.3674 117.082V119.082ZM48.0204 117.082C47.4681 117.082 47.0204 117.529 47.0204 118.082C47.0204 118.634 47.4681 119.082 48.0204 119.082V117.082ZM34.6735 119.082C35.2258 119.082 35.6735 118.634 35.6735 118.082C35.6735 117.529 35.2258 117.082 34.6735 117.082V119.082ZM27 125.849C27 126.402 27.4477 126.849 28 126.849C28.5523 126.849 29 126.402 29 125.849H27ZM29 141.384C29 140.832 28.5523 140.384 28 140.384C27.4477 140.384 27 140.832 27 141.384H29ZM27 156.919C27 157.472 27.4477 157.919 28 157.919C28.5523 157.919 29 157.472 29 156.919H27ZM29 172.454C29 171.902 28.5523 171.454 28 171.454C27.4477 171.454 27 171.902 27 172.454H29ZM27 187.989C27 188.541 27.4477 188.989 28 188.989C28.5523 188.989 29 188.541 29 187.989H27ZM29 203.524C29 202.972 28.5523 202.524 28 202.524C27.4477 202.524 27 202.972 27 203.524H29ZM34.6735 212.292C35.2258 212.292 35.6735 211.844 35.6735 211.292C35.6735 210.739 35.2258 210.292 34.6735 210.292V212.292ZM48.0204 210.292C47.4681 210.292 47.0204 210.739 47.0204 211.292C47.0204 211.844 47.4681 212.292 48.0204 212.292V210.292ZM61.3674 212.292C61.9197 212.292 62.3674 211.844 62.3674 211.292C62.3674 210.739 61.9197 210.292 61.3674 210.292V212.292ZM74.7143 210.292C74.162 210.292 73.7143 210.739 73.7143 211.292C73.7143 211.844 74.162 212.292 74.7143 212.292V210.292ZM88.0613 212.292C88.6136 212.292 89.0613 211.844 89.0613 211.292C89.0613 210.739 88.6136 210.292 88.0613 210.292V212.292ZM101.408 210.292C100.856 210.292 100.408 210.739 100.408 211.292C100.408 211.844 100.856 212.292 101.408 212.292V210.292ZM107.082 217.965C107.082 218.517 107.529 218.965 108.082 218.965C108.634 218.965 109.082 218.517 109.082 217.965H107.082ZM109.082 231.312C109.082 230.76 108.634 230.312 108.082 230.312C107.529 230.312 107.082 230.76 107.082 231.312H109.082ZM107.082 244.659C107.082 245.211 107.529 245.659 108.082 245.659C108.634 245.659 109.082 245.211 109.082 244.659H107.082ZM109.082 258.006C109.082 257.454 108.634 257.006 108.082 257.006C107.529 257.006 107.082 257.454 107.082 258.006H109.082ZM107.082 271.353C107.082 271.905 107.529 272.353 108.082 272.353C108.634 272.353 109.082 271.905 109.082 271.353H107.082ZM109.082 284.7C109.082 284.148 108.634 283.7 108.082 283.7C107.529 283.7 107.082 284.148 107.082 284.7H109.082ZM115.849 292.373C116.401 292.373 116.849 291.926 116.849 291.373C116.849 290.821 116.401 290.373 115.849 290.373V292.373ZM131.384 290.373C130.832 290.373 130.384 290.821 130.384 291.373C130.384 291.926 130.832 292.373 131.384 292.373V290.373ZM146.919 292.373C147.471 292.373 147.919 291.926 147.919 291.373C147.919 290.821 147.471 290.373 146.919 290.373V292.373ZM162.454 290.373C161.902 290.373 161.454 290.821 161.454 291.373C161.454 291.926 161.902 292.373 162.454 292.373V290.373ZM177.989 292.373C178.541 292.373 178.989 291.926 178.989 291.373C178.989 290.821 178.541 290.373 177.989 290.373V292.373ZM193.524 290.373C192.972 290.373 192.524 290.821 192.524 291.373C192.524 291.926 192.972 292.373 193.524 292.373V290.373ZM202.292 284.7C202.292 284.148 201.844 283.7 201.292 283.7C200.739 283.7 200.292 284.148 200.292 284.7H202.292ZM200.292 271.353C200.292 271.905 200.739 272.353 201.292 272.353C201.844 272.353 202.292 271.905 202.292 271.353H200.292ZM202.292 258.006C202.292 257.454 201.844 257.006 201.292 257.006C200.739 257.006 200.292 257.454 200.292 258.006H202.292ZM200.292 244.659C200.292 245.211 200.739 245.659 201.292 245.659C201.844 245.659 202.292 245.211 202.292 244.659H200.292ZM202.292 231.312C202.292 230.76 201.844 230.312 201.292 230.312C200.739 230.312 200.292 230.76 200.292 231.312H202.292ZM200.292 217.965C200.292 218.517 200.739 218.965 201.292 218.965C201.844 218.965 202.292 218.517 202.292 217.965H200.292ZM207.965 212.292C208.517 212.292 208.965 211.844 208.965 211.292C208.965 210.739 208.517 210.292 207.965 210.292V212.292ZM221.312 210.292C220.76 210.292 220.312 210.739 220.312 211.292C220.312 211.844 220.76 212.292 221.312 212.292V210.292ZM234.659 212.292C235.211 212.292 235.659 211.844 235.659 211.292C235.659 210.739 235.211 210.292 234.659 210.292V212.292ZM248.006 210.292C247.454 210.292 247.006 210.739 247.006 211.292C247.006 211.844 247.454 212.292 248.006 212.292V210.292ZM261.353 212.292C261.905 212.292 262.353 211.844 262.353 211.292C262.353 210.739 261.905 210.292 261.353 210.292V212.292ZM274.7 210.292C274.148 210.292 273.7 210.739 273.7 211.292C273.7 211.844 274.148 212.292 274.7 212.292V210.292ZM282.373 203.524C282.373 202.972 281.926 202.524 281.373 202.524C280.821 202.524 280.373 202.972 280.373 203.524H282.373ZM280.373 187.989C280.373 188.541 280.821 188.989 281.373 188.989C281.926 188.989 282.373 188.541 282.373 187.989H280.373ZM282.373 172.454C282.373 171.902 281.926 171.454 281.373 171.454C280.821 171.454 280.373 171.902 280.373 172.454H282.373ZM280.373 156.919C280.373 157.471 280.821 157.919 281.373 157.919C281.926 157.919 282.373 157.471 282.373 156.919H280.373ZM282.373 141.384C282.373 140.832 281.926 140.384 281.373 140.384C280.821 140.384 280.373 140.832 280.373 141.384H282.373ZM280.373 125.849C280.373 126.402 280.821 126.849 281.373 126.849C281.926 126.849 282.373 126.402 282.373 125.849H280.373ZM274.7 117.082C274.148 117.082 273.7 117.529 273.7 118.082C273.7 118.634 274.148 119.082 274.7 119.082V117.082ZM261.353 119.082C261.905 119.082 262.353 118.634 262.353 118.082C262.353 117.529 261.905 117.082 261.353 117.082V119.082ZM248.006 117.082C247.454 117.082 247.006 117.529 247.006 118.082C247.006 118.634 247.454 119.082 248.006 119.082V117.082ZM234.659 119.082C235.211 119.082 235.659 118.634 235.659 118.082C235.659 117.529 235.211 117.082 234.659 117.082V119.082ZM221.312 117.082C220.76 117.082 220.312 117.529 220.312 118.082C220.312 118.634 220.76 119.082 221.312 119.082V117.082ZM207.965 119.082C208.517 119.082 208.965 118.634 208.965 118.082C208.965 117.529 208.517 117.082 207.965 117.082V119.082ZM202.292 111.408C202.292 110.856 201.844 110.408 201.292 110.408C200.739 110.408 200.292 110.856 200.292 111.408H202.292ZM200.292 98.0613C200.292 98.6136 200.739 99.0613 201.292 99.0613C201.844 99.0613 202.292 98.6136 202.292 98.0613H200.292ZM202.292 84.7144C202.292 84.1621 201.844 83.7144 201.292 83.7144C200.739 83.7144 200.292 84.1621 200.292 84.7144H202.292ZM200.292 71.3674C200.292 71.9197 200.739 72.3674 201.292 72.3674C201.844 72.3674 202.292 71.9197 202.292 71.3674H200.292ZM202.292 58.0204C202.292 57.4682 201.844 57.0204 201.292 57.0204C200.739 57.0204 200.292 57.4682 200.292 58.0204H202.292ZM200.292 44.6735C200.292 45.2258 200.739 45.6735 201.292 45.6735C201.844 45.6735 202.292 45.2258 202.292 44.6735H200.292ZM193.524 37C192.972 37 192.524 37.4477 192.524 38C192.524 38.5523 192.972 39 193.524 39V37ZM177.989 39C178.541 39 178.989 38.5523 178.989 38C178.989 37.4477 178.541 37 177.989 37V39ZM162.454 37C161.902 37 161.454 37.4477 161.454 38C161.454 38.5523 161.902 39 162.454 39V37ZM146.919 39C147.471 39 147.919 38.5523 147.919 38C147.919 37.4477 147.471 37 146.919 37V39ZM131.384 37C130.832 37 130.384 37.4477 130.384 38C130.384 38.5523 130.832 39 131.384 39V37ZM115.849 39C116.401 39 116.849 38.5523 116.849 38C116.849 37.4477 116.401 37 115.849 37V39ZM107.082 38V44.6735H109.082V38H107.082ZM107.082 58.0204V71.3674H109.082V58.0204H107.082ZM107.082 84.7144V98.0613H109.082V84.7144H107.082ZM107.082 111.408V118.082H109.082V111.408H107.082ZM108.082 117.082H101.408V119.082H108.082V117.082ZM88.0613 117.082H74.7143V119.082H88.0613V117.082ZM61.3674 117.082H48.0204V119.082H61.3674V117.082ZM34.6735 117.082H28V119.082H34.6735V117.082ZM27 118.082L27 125.849H29L29 118.082H27ZM27 141.384L27 156.919H29L29 141.384H27ZM27 172.454L27 187.989H29L29 172.454H27ZM27 203.524L27 211.292H29L29 203.524H27ZM28 212.292H34.6735V210.292H28V212.292ZM48.0204 212.292H61.3674V210.292H48.0204V212.292ZM74.7143 212.292H88.0613V210.292H74.7143V212.292ZM101.408 212.292H108.082V210.292H101.408V212.292ZM107.082 211.292V217.965H109.082V211.292H107.082ZM107.082 231.312V244.659H109.082V231.312H107.082ZM107.082 258.006V271.353H109.082V258.006H107.082ZM107.082 284.7V291.373H109.082V284.7H107.082ZM108.082 292.373H115.849V290.373H108.082V292.373ZM131.384 292.373H146.919V290.373H131.384V292.373ZM162.454 292.373H177.989V290.373H162.454V292.373ZM193.524 292.373H201.292V290.373H193.524V292.373ZM202.292 291.373V284.7H200.292V291.373H202.292ZM202.292 271.353V258.006H200.292V271.353H202.292ZM202.292 244.659V231.312H200.292V244.659H202.292ZM202.292 217.965V211.292H200.292V217.965H202.292ZM201.292 212.292H207.965V210.292H201.292V212.292ZM221.312 212.292H234.659V210.292H221.312V212.292ZM248.006 212.292H261.353V210.292H248.006V212.292ZM274.7 212.292H281.373V210.292H274.7V212.292ZM282.373 211.292V203.524H280.373V211.292H282.373ZM282.373 187.989V172.454H280.373V187.989H282.373ZM282.373 156.919V141.384H280.373V156.919H282.373ZM282.373 125.849V118.082H280.373V125.849H282.373ZM281.373 117.082H274.7V119.082H281.373V117.082ZM261.353 117.082H248.006V119.082H261.353V117.082ZM234.659 117.082H221.312V119.082H234.659V117.082ZM207.965 117.082H201.292V119.082H207.965V117.082ZM202.292 118.082V111.408H200.292V118.082H202.292ZM202.292 98.0613V84.7144H200.292V98.0613H202.292ZM202.292 71.3674V58.0204H200.292V71.3674H202.292ZM202.292 44.6735V38H200.292V44.6735H202.292ZM201.292 37H193.524V39H201.292V37ZM177.989 37H162.454V39H177.989V37ZM146.919 37H131.384V39H146.919V37ZM115.849 37H108.082V39H115.849V37Z" fill="#1F1F1F" fill-opacity="0.16"/>
<path fill-rule="evenodd" clip-rule="evenodd" d="M178.809 248.947C192.949 234.807 215.876 234.807 230.016 248.947C244.156 263.088 244.156 286.014 230.016 300.154L204.412 325.758L230.016 351.362C244.156 365.502 244.156 388.427 230.016 402.567C215.876 416.707 192.951 416.707 178.811 402.567L102 325.756L178.809 248.947Z" stroke="#162671" stroke-width="2"/>
<path fill-rule="evenodd" clip-rule="evenodd" d="M334.965 231L429.72 325.755L334.965 420.51L283.761 369.306L327.309 325.758L283.759 282.207L334.965 231Z" stroke="#25C9D0" stroke-width="2"/>
</svg>
