<svg data-v-ee4c0e74="" viewBox="0 0 94 24" fill="none" xmlns="http://www.w3.org/2000/svg" class="logo-with-text">
	<path data-v-ee4c0e74="" d="M32 3V20.9987H39.3262C44.4217 20.9987 47.5144 17.2976 47.5144 11.9994C47.5144 6.70115 44.4217 3 39.3262 3H32ZM38.7939 5.99134C41.8613 5.99134 43.864 8.04471 43.864 11.9994C43.864 15.954 41.8613 18.0074 38.7939 18.0074H35.549V5.99134H38.7939Z" fill="black"></path>
	<path data-v-ee4c0e74="" d="M54.7335 7.61376C52.2238 7.61376 50.3225 8.57707 48.6748 10.529L50.7535 12.4303C51.5394 11.6698 52.2238 11.1375 52.7562 10.8079C53.2885 10.4783 53.973 10.3262 54.7842 10.3262C56.3052 10.3262 57.2178 11.0614 57.2178 12.3036V12.6078L54.1758 13.1655C50.7281 13.7739 48.5734 14.9907 48.5734 17.7285C48.5734 20.1875 50.5507 21.4297 53.2125 21.4297C55.1645 21.4297 56.5841 20.7706 57.3953 19.6552V20.9987H60.3613V12.2529C60.3613 9.43898 58.3586 7.61376 54.7335 7.61376ZM53.7702 18.7933C52.528 18.7933 51.7929 18.3116 51.7929 17.5004C51.7929 16.385 52.8322 15.9033 55.0377 15.4217L57.2178 14.9654V15.7259C57.2178 17.8299 55.6715 18.7933 53.7702 18.7933Z" fill="black"></path>
	<path data-v-ee4c0e74="" d="M76.9643 8.01936L75.925 12.2782C75.5701 13.7232 75.1645 15.6498 74.6828 18.0581C74.2012 15.8273 73.7702 13.9006 73.3392 12.2782L72.2238 8.01936H69.1818L68.0664 12.2782C67.6608 13.8246 67.2298 15.7512 66.7482 18.0074C66.2412 15.4724 65.8356 13.5711 65.506 12.2782L64.4666 8.01936H60.9936L64.5934 20.9987H68.5227L69.4353 17.475C69.8156 15.9794 70.2212 14.2048 70.6268 12.2022C71.0577 14.1288 71.4633 15.878 71.8943 17.475L72.8576 20.9987H76.7615L80.3613 8.01936H76.9643Z" fill="black"></path>
	<path data-v-ee4c0e74="" d="M88.3718 7.61376C86.648 7.61376 85.3044 8.29822 84.4678 9.51503V8.04471H81.4005V20.9987H84.696V13.1908C84.696 11.5684 85.7861 10.453 87.3071 10.453C88.8535 10.453 89.7154 11.391 89.7154 13.1148V20.9987H93.0109V12.1261C93.0109 9.41363 91.3124 7.61376 88.3718 7.61376Z" fill="black"></path> <path data-v-ee4c0e74="" fill-rule="evenodd" clip-rule="evenodd" d="M0 16.5912V12.75C0 10.6789 1.67894 9 3.75002 9C5.8211 9 7.50005 10.6789 7.50005 12.75V16.5001H11.2502C13.3212 16.5001 15.0001 18.179 15.0001 20.25C15.0001 22.321 13.3212 23.9999 11.2502 23.9999H7.40876H0V16.5912Z" fill="#162671"></path>
	<path data-v-ee4c0e74="" fill-rule="evenodd" clip-rule="evenodd" d="M10.1211 0H23.9995V13.8784H16.4998V7.50005H10.1211V0Z" fill="#25C9D0"></path> <path data-v-ee4c0e74="" fill-rule="evenodd" clip-rule="evenodd" d="M0 16.5912V12.75C0 10.6789 1.67894 9 3.75002 9C5.8211 9 7.50005 10.6789 7.50005 12.75V16.5001H11.2502C13.3212 16.5001 15.0001 18.179 15.0001 20.25C15.0001 22.321 13.3212 23.9999 11.2502 23.9999H7.40876H0V16.5912Z" fill="#162671"></path> <path data-v-ee4c0e74="" fill-rule="evenodd" clip-rule="evenodd" d="M10.1215 0H23.9998V13.8784H16.5002V7.50005H10.1215V0Z" fill="#25C9D0"></path>
</svg>